<svg width="164" height="52" viewBox="0 0 164 52" fill="none" xmlns="http://www.w3.org/2000/svg">
<rect x="0.5" y="0.5" width="163" height="51" rx="13.5" fill="#275EDF"/>
<rect x="0.5" y="0.5" width="163" height="51" rx="13.5" stroke="white"/>
<path d="M41.82 22.9C41.7133 21.8733 41.34 21.1333 40.7 20.68C40.0733 20.2133 39.2667 19.98 38.28 19.98C37.88 19.98 37.4867 20.02 37.1 20.1C36.7133 20.18 36.3667 20.3133 36.06 20.5C35.7667 20.6867 35.5267 20.94 35.34 21.26C35.1667 21.5667 35.08 21.9533 35.08 22.42C35.08 22.86 35.2067 23.22 35.46 23.5C35.7267 23.7667 36.0733 23.9867 36.5 24.16C36.94 24.3333 37.4333 24.48 37.98 24.6C38.5267 24.7067 39.08 24.8267 39.64 24.96C40.2133 25.0933 40.7733 25.2533 41.32 25.44C41.8667 25.6133 42.3533 25.8533 42.78 26.16C43.22 26.4667 43.5667 26.8533 43.82 27.32C44.0867 27.7867 44.22 28.3733 44.22 29.08C44.22 29.84 44.0467 30.4933 43.7 31.04C43.3667 31.5733 42.9333 32.0133 42.4 32.36C41.8667 32.6933 41.2667 32.9333 40.6 33.08C39.9467 33.24 39.2933 33.32 38.64 33.32C37.84 33.32 37.08 33.22 36.36 33.02C35.6533 32.82 35.0267 32.52 34.48 32.12C33.9467 31.7067 33.52 31.1867 33.2 30.56C32.8933 29.92 32.74 29.1667 32.74 28.3H34.54C34.54 28.9 34.6533 29.42 34.88 29.86C35.12 30.2867 35.4267 30.64 35.8 30.92C36.1867 31.2 36.6333 31.4067 37.14 31.54C37.6467 31.6733 38.1667 31.74 38.7 31.74C39.1267 31.74 39.5533 31.7 39.98 31.62C40.42 31.54 40.8133 31.4067 41.16 31.22C41.5067 31.02 41.7867 30.7533 42 30.42C42.2133 30.0867 42.32 29.66 42.32 29.14C42.32 28.6467 42.1867 28.2467 41.92 27.94C41.6667 27.6333 41.32 27.3867 40.88 27.2C40.4533 27 39.9667 26.84 39.42 26.72C38.8733 26.6 38.3133 26.48 37.74 26.36C37.18 26.2267 36.6267 26.08 36.08 25.92C35.5333 25.7467 35.04 25.5267 34.6 25.26C34.1733 24.98 33.8267 24.6267 33.56 24.2C33.3067 23.76 33.18 23.2133 33.18 22.56C33.18 21.84 33.3267 21.22 33.62 20.7C33.9133 20.1667 34.3 19.7333 34.78 19.4C35.2733 19.0533 35.8267 18.8 36.44 18.64C37.0667 18.4667 37.7067 18.38 38.36 18.38C39.0933 18.38 39.7733 18.4667 40.4 18.64C41.0267 18.8133 41.5733 19.0867 42.04 19.46C42.52 19.8333 42.8933 20.3067 43.16 20.88C43.44 21.44 43.5933 22.1133 43.62 22.9H41.82ZM46.2488 18.72H47.9488V24.18H47.9888C48.1221 23.86 48.3088 23.5933 48.5488 23.38C48.7888 23.1533 49.0554 22.9733 49.3488 22.84C49.6554 22.6933 49.9688 22.5867 50.2888 22.52C50.6221 22.4533 50.9421 22.42 51.2488 22.42C51.9288 22.42 52.4954 22.5133 52.9488 22.7C53.4021 22.8867 53.7688 23.1467 54.0488 23.48C54.3288 23.8133 54.5221 24.2133 54.6288 24.68C54.7488 25.1333 54.8088 25.64 54.8088 26.2V33H53.1088V26C53.1088 25.36 52.9221 24.8533 52.5488 24.48C52.1754 24.1067 51.6621 23.92 51.0088 23.92C50.4888 23.92 50.0354 24 49.6488 24.16C49.2754 24.32 48.9621 24.5467 48.7088 24.84C48.4554 25.1333 48.2621 25.48 48.1288 25.88C48.0088 26.2667 47.9488 26.6933 47.9488 27.16V33H46.2488V18.72ZM58.602 27.84C58.602 28.4667 58.682 29.0267 58.842 29.52C59.0154 30 59.2487 30.4067 59.542 30.74C59.8354 31.06 60.1754 31.3067 60.562 31.48C60.962 31.6533 61.382 31.74 61.822 31.74C62.262 31.74 62.6754 31.6533 63.062 31.48C63.462 31.3067 63.8087 31.06 64.102 30.74C64.3954 30.4067 64.622 30 64.782 29.52C64.9554 29.0267 65.042 28.4667 65.042 27.84C65.042 27.2133 64.9554 26.66 64.782 26.18C64.622 25.6867 64.3954 25.2733 64.102 24.94C63.8087 24.6067 63.462 24.3533 63.062 24.18C62.6754 24.0067 62.262 23.92 61.822 23.92C61.382 23.92 60.962 24.0067 60.562 24.18C60.1754 24.3533 59.8354 24.6067 59.542 24.94C59.2487 25.2733 59.0154 25.6867 58.842 26.18C58.682 26.66 58.602 27.2133 58.602 27.84ZM56.802 27.84C56.802 27.08 56.9087 26.3733 57.122 25.72C57.3354 25.0533 57.6554 24.48 58.082 24C58.5087 23.5067 59.0354 23.12 59.662 22.84C60.2887 22.56 61.0087 22.42 61.822 22.42C62.6487 22.42 63.3687 22.56 63.982 22.84C64.6087 23.12 65.1354 23.5067 65.562 24C65.9887 24.48 66.3087 25.0533 66.522 25.72C66.7354 26.3733 66.842 27.08 66.842 27.84C66.842 28.6 66.7354 29.3067 66.522 29.96C66.3087 30.6133 65.9887 31.1867 65.562 31.68C65.1354 32.16 64.6087 32.54 63.982 32.82C63.3687 33.0867 62.6487 33.22 61.822 33.22C61.0087 33.22 60.2887 33.0867 59.662 32.82C59.0354 32.54 58.5087 32.16 58.082 31.68C57.6554 31.1867 57.3354 30.6133 57.122 29.96C56.9087 29.3067 56.802 28.6 56.802 27.84ZM68.9064 22.66H70.6064V24.06H70.6464C70.9264 23.4867 71.3664 23.0733 71.9664 22.82C72.5664 22.5533 73.2264 22.42 73.9464 22.42C74.7464 22.42 75.4397 22.5667 76.0264 22.86C76.6264 23.1533 77.1197 23.5533 77.5064 24.06C77.9064 24.5533 78.2064 25.1267 78.4064 25.78C78.6064 26.4333 78.7064 27.1267 78.7064 27.86C78.7064 28.5933 78.6064 29.2867 78.4064 29.94C78.2197 30.5933 77.9264 31.1667 77.5264 31.66C77.1397 32.14 76.6464 32.52 76.0464 32.8C75.4597 33.08 74.7731 33.22 73.9864 33.22C73.7331 33.22 73.4464 33.1933 73.1264 33.14C72.8197 33.0867 72.5131 33 72.2064 32.88C71.8997 32.76 71.6064 32.6 71.3264 32.4C71.0597 32.1867 70.8331 31.9267 70.6464 31.62H70.6064V36.94H68.9064V22.66ZM76.9064 27.74C76.9064 27.26 76.8397 26.7933 76.7064 26.34C76.5864 25.8733 76.3931 25.46 76.1264 25.1C75.8731 24.74 75.5397 24.4533 75.1264 24.24C74.7264 24.0267 74.2531 23.92 73.7064 23.92C73.1331 23.92 72.6464 24.0333 72.2464 24.26C71.8464 24.4867 71.5197 24.7867 71.2664 25.16C71.0131 25.52 70.8264 25.9333 70.7064 26.4C70.5997 26.8667 70.5464 27.34 70.5464 27.82C70.5464 28.3267 70.6064 28.82 70.7264 29.3C70.8464 29.7667 71.0331 30.18 71.2864 30.54C71.5531 30.9 71.8931 31.1933 72.3064 31.42C72.7197 31.6333 73.2197 31.74 73.8064 31.74C74.3931 31.74 74.8797 31.6267 75.2664 31.4C75.6664 31.1733 75.9864 30.8733 76.2264 30.5C76.4664 30.1267 76.6397 29.7 76.7464 29.22C76.8531 28.74 76.9064 28.2467 76.9064 27.74ZM86.5283 18.72H88.5483L96.0683 30.3H96.1083V18.72H97.9083V33H95.8283L88.3683 21.54H88.3283V33H86.5283V18.72ZM101.942 27.84C101.942 28.4667 102.022 29.0267 102.182 29.52C102.355 30 102.589 30.4067 102.882 30.74C103.175 31.06 103.515 31.3067 103.902 31.48C104.302 31.6533 104.722 31.74 105.162 31.74C105.602 31.74 106.015 31.6533 106.402 31.48C106.802 31.3067 107.149 31.06 107.442 30.74C107.735 30.4067 107.962 30 108.122 29.52C108.295 29.0267 108.382 28.4667 108.382 27.84C108.382 27.2133 108.295 26.66 108.122 26.18C107.962 25.6867 107.735 25.2733 107.442 24.94C107.149 24.6067 106.802 24.3533 106.402 24.18C106.015 24.0067 105.602 23.92 105.162 23.92C104.722 23.92 104.302 24.0067 103.902 24.18C103.515 24.3533 103.175 24.6067 102.882 24.94C102.589 25.2733 102.355 25.6867 102.182 26.18C102.022 26.66 101.942 27.2133 101.942 27.84ZM100.142 27.84C100.142 27.08 100.249 26.3733 100.462 25.72C100.675 25.0533 100.995 24.48 101.422 24C101.849 23.5067 102.375 23.12 103.002 22.84C103.629 22.56 104.349 22.42 105.162 22.42C105.989 22.42 106.709 22.56 107.322 22.84C107.949 23.12 108.475 23.5067 108.902 24C109.329 24.48 109.649 25.0533 109.862 25.72C110.075 26.3733 110.182 27.08 110.182 27.84C110.182 28.6 110.075 29.3067 109.862 29.96C109.649 30.6133 109.329 31.1867 108.902 31.68C108.475 32.16 107.949 32.54 107.322 32.82C106.709 33.0867 105.989 33.22 105.162 33.22C104.349 33.22 103.629 33.0867 103.002 32.82C102.375 32.54 101.849 32.16 101.422 31.68C100.995 31.1867 100.675 30.6133 100.462 29.96C100.249 29.3067 100.142 28.6 100.142 27.84ZM122.426 33H120.626L118.526 24.78H118.486L116.406 33H114.566L111.246 22.66H113.126L115.466 31.12H115.506L117.586 22.66H119.446L121.606 31.12H121.646L123.966 22.66H125.726L122.426 33ZM127.543 30.78H129.763V33H127.543V30.78ZM129.603 23.12L129.103 29.34H128.203L127.703 23.12V18.72H129.603V23.12Z" fill="white"/>
</svg>
