<svg width="113" height="113" viewBox="0 0 113 113" fill="none" xmlns="http://www.w3.org/2000/svg">
<path fill-rule="evenodd" clip-rule="evenodd" d="M98.0276 59.9776C96.1095 82.9104 75.9608 99.9464 53.0219 98.0259C30.0884 96.1083 13.0504 75.9597 14.9716 53.0204C16.8919 30.0883 37.0384 13.0515 59.978 14.9716C82.9108 16.8896 99.9488 37.0383 98.0276 59.9776Z" fill="#5972CB"/>
<path fill-rule="evenodd" clip-rule="evenodd" d="M78.4205 58.3339C77.4065 70.4403 66.7679 79.428 54.6643 78.4192C42.562 77.4021 33.5687 66.7674 34.5827 54.661C35.5954 42.5611 46.2302 33.5697 58.3362 34.583C70.4402 35.5925 79.4286 46.2308 78.4205 58.3339Z" fill="#4D73D4"/>
<path opacity="0.2" fill-rule="evenodd" clip-rule="evenodd" d="M71.4893 72.5562C67.1099 76.6439 61.104 78.9591 54.6633 78.419C51.1904 78.1242 47.9879 77.0244 45.1908 75.3405C40.4677 75.1306 23.4738 73.2528 14.831 57.3386C15.2323 78.4367 31.5362 96.2288 53.02 98.0258C60.1692 98.626 69.5541 95.8942 70.8613 95.5484C71.1158 94.983 75.1878 85.3854 71.4893 72.5562Z" fill="#869DEE"/>
<path fill-rule="evenodd" clip-rule="evenodd" d="M70.8618 95.5486C70.8601 95.5543 70.8478 95.583 70.8506 95.5882C71.0917 95.4969 71.0698 95.4953 70.8618 95.5486Z" fill="#4DADF3"/>
<path opacity="0.6" fill-rule="evenodd" clip-rule="evenodd" d="M82.6398 24.0382C70.7819 24.6862 61.0442 29.5379 53.903 34.654C55.3439 34.4841 56.8274 34.455 58.3358 34.5831C70.4401 35.5915 79.429 46.2305 78.4187 58.3348C77.944 63.999 75.3462 68.9632 71.49 72.5565C75.2257 85.5199 71.0223 95.204 70.8501 95.5887C85.5822 90.1682 96.6303 76.6541 98.0263 59.9778C99.2275 45.6599 93.0378 32.4278 82.6398 24.0382Z" fill="#869DEE"/>
<path d="M45.6625 62.3707C48.9055 68.3568 56.3872 70.5805 62.3733 67.3375C68.3593 64.0945 70.583 56.6128 67.34 50.6267C64.097 44.6407 56.6154 42.417 50.6293 45.66C44.6432 48.903 42.4195 56.3847 45.6625 62.3707Z" fill="#869DEE"/>
<path d="M70.9236 29.4202L59.9279 49.6299L72.8564 66.5563L70.9236 29.4202Z" fill="white" fill-opacity="0.602"/>
<path d="M70.9202 29.4182L38.6879 47.9657L59.9245 49.6278L70.9202 29.4182Z" fill="white"/>
<path d="M48.6494 70.3587L41.178 84.0908L71.1372 69.7429L48.6494 70.3587Z" fill="white" fill-opacity="0.602"/>
<path d="M41.1766 84.0888L48.6492 70.3544L36.9593 51.1461L41.1766 84.0888Z" fill="white"/>
<path d="M50.3799 67.1801L72.8575 66.5557L59.9264 49.6339L50.3799 67.1801Z" fill="white" fill-opacity="0.2"/>
<path d="M38.689 47.9651L50.3764 67.1781L59.923 49.6319L38.689 47.9651Z" fill="white" fill-opacity="0.602"/>
</svg>
