<svg width="24" height="24" viewBox="0 0 24 24" fill="none" xmlns="http://www.w3.org/2000/svg">
<path d="M14.9758 12.0002C14.9758 12.1335 14.9508 12.2625 14.9008 12.3872C14.8508 12.5125 14.7841 12.6169 14.7008 12.7002L10.1008 17.3002C9.91745 17.4835 9.68411 17.5752 9.40078 17.5752C9.11745 17.5752 8.88411 17.4835 8.70078 17.3002C8.51745 17.1169 8.42578 16.8835 8.42578 16.6002C8.42578 16.3169 8.51745 16.0835 8.70078 15.9002L12.6008 12.0002L8.70078 8.1002C8.51745 7.91686 8.42578 7.68353 8.42578 7.4002C8.42578 7.11686 8.51745 6.88353 8.70078 6.7002C8.88411 6.51686 9.11745 6.42519 9.40078 6.42519C9.68411 6.42519 9.91745 6.51686 10.1008 6.7002L14.7008 11.3002C14.8008 11.4002 14.8714 11.5085 14.9128 11.6252C14.9548 11.7419 14.9758 11.8669 14.9758 12.0002Z" fill="black"/>
</svg>
