<svg width="75" height="52" viewBox="0 0 75 52" fill="none" xmlns="http://www.w3.org/2000/svg">
<path d="M14.272 20.576H16.4L20.8 32H18.656L17.584 28.976H13.024L11.952 32H9.888L14.272 20.576ZM13.568 27.456H17.056L15.344 22.544H15.296L13.568 27.456ZM21.6799 20.576H23.5039V22.304H21.6799V20.576ZM21.6799 23.728H23.5039V32H21.6799V23.728ZM25.4913 23.728H27.2033V25.328H27.2353C27.2886 25.104 27.3899 24.8853 27.5393 24.672C27.6993 24.4587 27.8859 24.2667 28.0993 24.096C28.3233 23.9147 28.5686 23.7707 28.8353 23.664C29.1019 23.5573 29.3739 23.504 29.6513 23.504C29.8646 23.504 30.0086 23.5093 30.0833 23.52C30.1686 23.5307 30.2539 23.5413 30.3393 23.552V25.312C30.2113 25.2907 30.0779 25.2747 29.9393 25.264C29.8113 25.2427 29.6833 25.232 29.5553 25.232C29.2459 25.232 28.9526 25.296 28.6753 25.424C28.4086 25.5413 28.1739 25.7227 27.9713 25.968C27.7686 26.2027 27.6086 26.496 27.4913 26.848C27.3739 27.2 27.3153 27.6053 27.3153 28.064V32H25.4913V23.728ZM38.627 32H36.899V30.88H36.867C36.6217 31.36 36.2643 31.7067 35.795 31.92C35.3257 32.1227 34.8297 32.224 34.307 32.224C33.6563 32.224 33.0857 32.112 32.595 31.888C32.115 31.6533 31.715 31.3387 31.395 30.944C31.075 30.5493 30.835 30.0853 30.675 29.552C30.515 29.008 30.435 28.4267 30.435 27.808C30.435 27.0613 30.5363 26.416 30.739 25.872C30.9417 25.328 31.2083 24.88 31.539 24.528C31.8803 24.176 32.2643 23.92 32.691 23.76C33.1283 23.5893 33.571 23.504 34.019 23.504C34.275 23.504 34.5363 23.5307 34.803 23.584C35.0697 23.6267 35.3257 23.7013 35.571 23.808C35.8163 23.9147 36.0403 24.0533 36.243 24.224C36.4563 24.384 36.6323 24.576 36.771 24.8H36.803V20.576H38.627V32ZM32.259 27.952C32.259 28.304 32.3017 28.6507 32.387 28.992C32.483 29.3333 32.6217 29.6373 32.803 29.904C32.995 30.1707 33.235 30.384 33.523 30.544C33.811 30.704 34.1523 30.784 34.547 30.784C34.9523 30.784 35.299 30.6987 35.587 30.528C35.8857 30.3573 36.1257 30.1333 36.307 29.856C36.499 29.5787 36.6377 29.2693 36.723 28.928C36.819 28.576 36.867 28.2187 36.867 27.856C36.867 26.9387 36.659 26.224 36.243 25.712C35.8377 25.2 35.283 24.944 34.579 24.944C34.1523 24.944 33.7897 25.0347 33.491 25.216C33.203 25.3867 32.963 25.616 32.771 25.904C32.5897 26.1813 32.4563 26.5013 32.371 26.864C32.2963 27.216 32.259 27.5787 32.259 27.952ZM40.6163 23.728H42.3283V25.328H42.3603C42.4136 25.104 42.5149 24.8853 42.6643 24.672C42.8243 24.4587 43.0109 24.2667 43.2243 24.096C43.4483 23.9147 43.6936 23.7707 43.9603 23.664C44.2269 23.5573 44.4989 23.504 44.7763 23.504C44.9896 23.504 45.1336 23.5093 45.2083 23.52C45.2936 23.5307 45.3789 23.5413 45.4643 23.552V25.312C45.3363 25.2907 45.2029 25.2747 45.0643 25.264C44.9363 25.2427 44.8083 25.232 44.6803 25.232C44.3709 25.232 44.0776 25.296 43.8003 25.424C43.5336 25.5413 43.2989 25.7227 43.0963 25.968C42.8936 26.2027 42.7336 26.496 42.6163 26.848C42.4989 27.2 42.4403 27.6053 42.4403 28.064V32H40.6163V23.728ZM49.752 32.224C49.0907 32.224 48.4987 32.1173 47.976 31.904C47.464 31.68 47.0267 31.376 46.664 30.992C46.312 30.608 46.04 30.1493 45.848 29.616C45.6667 29.0827 45.576 28.496 45.576 27.856C45.576 27.2267 45.6667 26.6453 45.848 26.112C46.04 25.5787 46.312 25.12 46.664 24.736C47.0267 24.352 47.464 24.0533 47.976 23.84C48.4987 23.616 49.0907 23.504 49.752 23.504C50.4133 23.504 51 23.616 51.512 23.84C52.0347 24.0533 52.472 24.352 52.824 24.736C53.1867 25.12 53.4587 25.5787 53.64 26.112C53.832 26.6453 53.928 27.2267 53.928 27.856C53.928 28.496 53.832 29.0827 53.64 29.616C53.4587 30.1493 53.1867 30.608 52.824 30.992C52.472 31.376 52.0347 31.68 51.512 31.904C51 32.1173 50.4133 32.224 49.752 32.224ZM49.752 30.784C50.1573 30.784 50.5093 30.6987 50.808 30.528C51.1067 30.3573 51.352 30.1333 51.544 29.856C51.736 29.5787 51.8747 29.2693 51.96 28.928C52.056 28.576 52.104 28.2187 52.104 27.856C52.104 27.504 52.056 27.152 51.96 26.8C51.8747 26.448 51.736 26.1387 51.544 25.872C51.352 25.5947 51.1067 25.3707 50.808 25.2C50.5093 25.0293 50.1573 24.944 49.752 24.944C49.3467 24.944 48.9947 25.0293 48.696 25.2C48.3973 25.3707 48.152 25.5947 47.96 25.872C47.768 26.1387 47.624 26.448 47.528 26.8C47.4427 27.152 47.4 27.504 47.4 27.856C47.4 28.2187 47.4427 28.576 47.528 28.928C47.624 29.2693 47.768 29.5787 47.96 29.856C48.152 30.1333 48.3973 30.3573 48.696 30.528C48.9947 30.6987 49.3467 30.784 49.752 30.784ZM55.4924 23.728H57.2204V24.848H57.2524C57.5084 24.368 57.8657 24.0267 58.3244 23.824C58.783 23.6107 59.279 23.504 59.8124 23.504C60.463 23.504 61.0284 23.6213 61.5084 23.856C61.999 24.08 62.4044 24.3947 62.7244 24.8C63.0444 25.1947 63.2844 25.6587 63.4444 26.192C63.6044 26.7253 63.6844 27.296 63.6844 27.904C63.6844 28.4587 63.6097 28.9973 63.4604 29.52C63.3217 30.0427 63.103 30.5067 62.8044 30.912C62.5164 31.3067 62.1484 31.6267 61.7004 31.872C61.2524 32.1067 60.7244 32.224 60.1164 32.224C59.8497 32.224 59.583 32.1973 59.3164 32.144C59.0497 32.1013 58.7937 32.0267 58.5484 31.92C58.303 31.8133 58.0737 31.68 57.8604 31.52C57.6577 31.3493 57.487 31.152 57.3484 30.928H57.3164V35.056H55.4924V23.728ZM61.8604 27.872C61.8604 27.4987 61.8124 27.136 61.7164 26.784C61.6204 26.432 61.4764 26.1227 61.2844 25.856C61.0924 25.5787 60.8524 25.36 60.5644 25.2C60.2764 25.0293 59.9457 24.944 59.5724 24.944C58.8044 24.944 58.223 25.2107 57.8284 25.744C57.4444 26.2773 57.2524 26.9867 57.2524 27.872C57.2524 28.288 57.3004 28.6773 57.3964 29.04C57.503 29.392 57.6577 29.696 57.8604 29.952C58.063 30.208 58.303 30.4107 58.5804 30.56C58.8684 30.7093 59.199 30.784 59.5724 30.784C59.9884 30.784 60.3404 30.6987 60.6284 30.528C60.9164 30.3573 61.151 30.1387 61.3324 29.872C61.5244 29.5947 61.6577 29.2853 61.7324 28.944C61.8177 28.592 61.8604 28.2347 61.8604 27.872Z" fill="#373737"/>
</svg>
