<svg width="54" height="30" viewBox="0 0 54 30" fill="none" xmlns="http://www.w3.org/2000/svg">
<path d="M14.0335 3.59286C15.9106 0.230591 20.1495 -0.989864 23.4774 0.87004C26.8088 2.72995 27.988 6.97575 26.1109 10.338L20.5071 20.3664C20.0017 20.1979 19.462 20.1085 18.9016 20.1085C16.0653 20.1085 13.7585 22.4154 13.7585 25.2551C13.7585 26.8262 14.4667 28.2357 15.584 29.1812L15.388 29.5318H0L14.0335 3.59286Z" fill="#9AE3E3"/>
<path d="M22.5899 23.0721L19.1039 29.525C19.0386 29.5319 18.9698 29.5319 18.9011 29.5319C18.1 29.5319 17.3506 29.3119 16.7077 28.9268C16.5839 28.8512 16.4636 28.7721 16.3467 28.6862C16.2298 28.5968 16.1198 28.5074 16.0098 28.4077C15.1538 27.6239 14.6174 26.4962 14.6174 25.2483C14.6174 22.883 16.5392 20.9612 18.9011 20.9612C19.3102 20.9612 19.7055 21.0197 20.0803 21.1262C20.2212 21.1675 20.3587 21.2122 20.4928 21.2672C20.6269 21.3222 20.7575 21.3806 20.8847 21.4494C21.5929 21.8207 22.1877 22.3845 22.5899 23.0721Z" fill="#069696"/>
<path d="M53.9607 25.2448C53.9607 27.6101 52.0389 29.5319 49.6736 29.5319C47.3083 29.5319 45.39 27.6101 45.39 25.2448C45.39 22.8796 47.3118 20.9612 49.6736 20.9612C52.0354 20.9612 53.9607 22.883 53.9607 25.2448Z" fill="#069696"/>
<path d="M46.1924 10.338L35.4696 29.5318H20.0816L20.1813 29.3427H20.1847L23.0279 24.0828L23.3063 23.5671L23.5676 23.0823L34.1185 3.59286C35.9956 0.230591 40.2311 -0.989864 43.5624 0.87004C46.8903 2.72995 48.0695 6.97575 46.1924 10.338Z" fill="#9AE3E3"/>
</svg>
