<svg width="66" height="66" viewBox="0 0 66 66" fill="none" xmlns="http://www.w3.org/2000/svg">
<path fill-rule="evenodd" clip-rule="evenodd" d="M57.2547 35.0312C56.1345 48.4255 44.3662 58.3758 30.9683 57.2541C17.5735 56.1341 7.62205 44.3658 8.74416 30.9677C9.86575 17.5737 21.6327 7.623 35.0311 8.74445C48.4255 9.8647 58.3769 21.633 57.2547 35.0312Z" fill="#5972CB"/>
<path fill-rule="evenodd" clip-rule="evenodd" d="M45.803 34.0712C45.2107 41.1422 38.997 46.3916 31.9277 45.8024C24.859 45.2083 19.6064 38.9969 20.1986 31.9259C20.7901 24.8587 27.0016 19.6071 34.0723 20.1989C41.1419 20.7885 46.3918 27.0021 45.803 34.0712Z" fill="#4D73D4"/>
<path opacity="0.2" fill-rule="evenodd" clip-rule="evenodd" d="M41.7547 42.3782C39.1969 44.7657 35.689 46.1179 31.9271 45.8025C29.8987 45.6303 28.0282 44.9879 26.3945 44.0044C23.6359 43.8818 13.7102 42.7851 8.66223 33.49C8.89663 45.8129 18.4193 56.2047 30.9673 57.2543C35.1429 57.6048 40.6244 56.0093 41.3879 55.8073C41.5366 55.477 43.9149 49.8714 41.7547 42.3782Z" fill="#869DEE"/>
<path fill-rule="evenodd" clip-rule="evenodd" d="M41.3879 55.8071C41.3869 55.8104 41.3797 55.8272 41.3814 55.8302C41.5222 55.7769 41.5094 55.776 41.3879 55.8071Z" fill="#4DADF3"/>
<path opacity="0.6" fill-rule="evenodd" clip-rule="evenodd" d="M48.2675 14.04C41.3417 14.4185 35.6542 17.2522 31.4832 20.2404C32.3248 20.1411 33.1913 20.1241 34.0723 20.199C41.1421 20.7879 46.3922 27.0019 45.8021 34.0717C45.5249 37.38 44.0076 40.2794 41.7553 42.3781C43.9372 49.9497 41.4821 55.6059 41.3815 55.8306C49.9861 52.6646 56.439 44.7714 57.2544 35.0313C57.9559 26.6686 54.3407 18.9401 48.2675 14.04Z" fill="#869DEE"/>
<path d="M26.6697 36.4286C28.5638 39.9249 32.9336 41.2237 36.4299 39.3296C39.9262 37.4354 41.225 33.0656 39.3309 29.5693C37.4367 26.073 33.0669 24.7742 29.5706 26.6684C26.0743 28.5625 24.7755 32.9323 26.6697 36.4286Z" fill="#869DEE"/>
<path d="M41.4246 17.1833L35.0023 28.9872L42.5535 38.8734L41.4246 17.1833Z" fill="white" fill-opacity="0.602"/>
<path d="M41.4228 17.1821L22.5969 28.0152L35.0006 28.986L41.4228 17.1821Z" fill="white"/>
<path d="M28.4155 41.0944L24.0517 49.1149L41.55 40.7347L28.4155 41.0944Z" fill="white" fill-opacity="0.602"/>
<path d="M24.0499 49.1137L28.4145 41.0919L21.5867 29.8728L24.0499 49.1137Z" fill="white"/>
<path d="M29.4254 39.2378L42.5539 38.8732L35.0013 28.9896L29.4254 39.2378Z" fill="white" fill-opacity="0.2"/>
<path d="M22.5973 28.0149L29.4236 39.2366L34.9995 28.9884L22.5973 28.0149Z" fill="white" fill-opacity="0.602"/>
</svg>
