<svg width="1920" height="329" viewBox="0 0 1920 329" fill="none" xmlns="http://www.w3.org/2000/svg">
<rect width="1920" height="329" fill="#373737"/>
<path d="M277.975 116.882C279.844 113.534 284.066 112.318 287.38 114.17C290.697 116.023 291.872 120.251 290.002 123.599L284.422 133.586C283.919 133.418 283.381 133.329 282.823 133.329C279.998 133.329 277.701 135.626 277.701 138.454C277.701 140.019 278.407 141.422 279.519 142.364L279.324 142.713H264L277.975 116.882Z" fill="#9AE3E3"/>
<path d="M286.496 136.28L283.024 142.706C282.959 142.713 282.891 142.713 282.822 142.713C282.025 142.713 281.278 142.494 280.638 142.11C280.515 142.035 280.395 141.956 280.279 141.871C280.162 141.782 280.053 141.693 279.943 141.593C279.091 140.813 278.557 139.69 278.557 138.447C278.557 136.092 280.47 134.178 282.822 134.178C283.23 134.178 283.624 134.236 283.997 134.342C284.137 134.383 284.274 134.428 284.408 134.483C284.541 134.537 284.671 134.596 284.798 134.664C285.503 135.034 286.095 135.595 286.496 136.28Z" fill="#069696"/>
<path d="M317.736 138.444C317.736 140.799 315.822 142.713 313.467 142.713C311.112 142.713 309.201 140.799 309.201 138.444C309.201 136.088 311.115 134.178 313.467 134.178C315.819 134.178 317.736 136.092 317.736 138.444Z" fill="#069696"/>
<path d="M310 123.599L299.322 142.713H283.998L284.097 142.525H284.101L286.932 137.287L287.209 136.773L287.47 136.29L297.977 116.882C299.846 113.534 304.064 112.318 307.381 114.17C310.695 116.023 311.87 120.251 310 123.599Z" fill="#9AE3E3"/>
<path d="M356.439 116.618C353.102 116.618 351.033 118.088 349.09 120.02C349.09 120.02 348.921 120.23 348.541 120.44C347.527 117.836 345.289 116.618 342.037 116.618C338.743 116.618 336.673 118.088 334.73 120.02C334.73 120.02 332.365 122.498 329.873 119.6H328.775V138.794H334.73V120.776C336.378 119.096 337.856 118.466 339.418 118.466C342.164 118.466 342.924 120.482 343.135 122.12V138.794H349.175V124.304C349.175 123.8 349.175 123.296 349.09 122.834V120.776C350.779 119.096 352.215 118.466 353.82 118.466C357.579 118.466 357.621 122.246 357.621 123.758V138.794H363.576V124.304C363.576 119.012 361 116.618 356.439 116.618Z" fill="white"/>
<path d="M390.039 124.43C387.97 117.794 382.015 115.19 375.722 117.122C369.302 119.138 365.839 124.976 367.908 131.57C369.978 138.206 375.891 140.81 382.226 138.878C388.603 136.862 392.109 131.024 390.039 124.43ZM382.226 138.248C378.974 139.298 375.806 135.686 373.864 129.512C371.921 123.338 372.259 118.802 375.637 117.752C378.932 116.744 382.141 120.356 384.084 126.572C385.985 132.662 385.647 137.198 382.226 138.248Z" fill="white"/>
<path d="M404.276 125.396L402.629 124.766C400.179 123.842 397.645 122.918 397.645 120.482C397.645 118.676 399.124 117.248 401.869 117.248C405.036 117.248 406.81 121.91 408.415 122.624L409.682 118.214C408.626 117.668 405.712 116.66 402.502 116.66C396.927 116.66 393.971 119.768 393.971 123.422C393.971 127.664 398.11 129.302 400.517 130.226L402.207 130.856C404.783 131.822 407.148 132.788 407.148 135.224C407.148 137.324 405.459 138.752 402.418 138.752C398.997 138.752 397.688 133.88 394.9 133.46L393.675 137.702C394.9 138.416 398.617 139.34 401.827 139.34C407.824 139.34 410.823 136.106 410.823 132.368C410.823 127.874 406.599 126.32 404.276 125.396Z" fill="white"/>
<path d="M436.439 124.43C434.37 117.794 428.415 115.19 422.122 117.122C415.702 119.138 412.239 124.976 414.309 131.57C416.378 138.206 422.291 140.81 428.626 138.878C435.003 136.862 438.509 131.024 436.439 124.43ZM428.626 138.248C425.374 139.298 422.206 135.686 420.264 129.512C418.321 123.338 418.659 118.802 422.037 117.752C425.332 116.744 428.541 120.356 430.484 126.572C432.385 132.662 432.047 137.198 428.626 138.248Z" fill="white"/>
<path d="M1286.77 121.5H1283.36L1287.2 109.864H1291.52L1295.36 121.5H1291.95L1289.41 113.068H1289.32L1286.77 121.5ZM1286.14 116.909H1292.55V119.273H1286.14V116.909ZM1296.48 121.5V109.864H1299.62V114.295H1299.67C1299.78 114 1299.95 113.729 1300.17 113.483C1300.39 113.233 1300.66 113.034 1300.98 112.886C1301.31 112.735 1301.69 112.659 1302.12 112.659C1302.7 112.659 1303.24 112.812 1303.76 113.119C1304.29 113.426 1304.71 113.909 1305.04 114.568C1305.37 115.227 1305.53 116.083 1305.53 117.136C1305.53 118.144 1305.37 118.979 1305.06 119.642C1304.75 120.305 1304.33 120.799 1303.81 121.125C1303.29 121.451 1302.72 121.614 1302.1 121.614C1301.69 121.614 1301.32 121.547 1301 121.415C1300.68 121.278 1300.41 121.095 1300.18 120.864C1299.96 120.629 1299.79 120.364 1299.67 120.068H1299.6V121.5H1296.48ZM1299.55 117.136C1299.55 117.561 1299.61 117.928 1299.72 118.239C1299.83 118.545 1299.99 118.784 1300.19 118.955C1300.4 119.121 1300.65 119.205 1300.94 119.205C1301.23 119.205 1301.47 119.123 1301.67 118.96C1301.88 118.794 1302.03 118.557 1302.14 118.25C1302.25 117.939 1302.3 117.568 1302.3 117.136C1302.3 116.705 1302.25 116.335 1302.14 116.028C1302.03 115.718 1301.88 115.481 1301.67 115.318C1301.47 115.152 1301.23 115.068 1300.94 115.068C1300.65 115.068 1300.4 115.152 1300.19 115.318C1299.99 115.481 1299.83 115.718 1299.72 116.028C1299.61 116.335 1299.55 116.705 1299.55 117.136ZM1311.05 121.659C1310.1 121.659 1309.29 121.472 1308.62 121.097C1307.94 120.718 1307.42 120.191 1307.06 119.517C1306.7 118.839 1306.52 118.053 1306.52 117.159C1306.52 116.265 1306.7 115.481 1307.06 114.807C1307.42 114.129 1307.94 113.602 1308.62 113.227C1309.29 112.848 1310.1 112.659 1311.05 112.659C1311.99 112.659 1312.8 112.848 1313.48 113.227C1314.15 113.602 1314.67 114.129 1315.03 114.807C1315.39 115.481 1315.57 116.265 1315.57 117.159C1315.57 118.053 1315.39 118.839 1315.03 119.517C1314.67 120.191 1314.15 120.718 1313.48 121.097C1312.8 121.472 1311.99 121.659 1311.05 121.659ZM1311.07 119.341C1311.33 119.341 1311.56 119.252 1311.76 119.074C1311.95 118.896 1312.1 118.642 1312.21 118.312C1312.31 117.983 1312.37 117.591 1312.37 117.136C1312.37 116.678 1312.31 116.286 1312.21 115.96C1312.1 115.631 1311.95 115.377 1311.76 115.199C1311.56 115.021 1311.33 114.932 1311.07 114.932C1310.79 114.932 1310.55 115.021 1310.35 115.199C1310.15 115.377 1309.99 115.631 1309.89 115.96C1309.78 116.286 1309.73 116.678 1309.73 117.136C1309.73 117.591 1309.78 117.983 1309.89 118.312C1309.99 118.642 1310.15 118.896 1310.35 119.074C1310.55 119.252 1310.79 119.341 1311.07 119.341ZM1322.5 117.682V112.773H1325.64V121.5H1322.66V119.841H1322.57C1322.38 120.398 1322.05 120.833 1321.58 121.148C1321.1 121.458 1320.54 121.614 1319.89 121.614C1319.28 121.614 1318.74 121.473 1318.29 121.193C1317.83 120.913 1317.48 120.527 1317.22 120.034C1316.97 119.542 1316.85 118.977 1316.84 118.341V112.773H1319.98V117.682C1319.98 118.114 1320.09 118.453 1320.31 118.699C1320.53 118.945 1320.83 119.068 1321.23 119.068C1321.49 119.068 1321.72 119.013 1321.9 118.903C1322.1 118.79 1322.25 118.631 1322.35 118.426C1322.45 118.218 1322.51 117.97 1322.5 117.682ZM1332.44 112.773V115.045H1326.69V112.773H1332.44ZM1327.8 110.682H1330.94V118.693C1330.94 118.814 1330.96 118.917 1331 119C1331.04 119.08 1331.11 119.14 1331.19 119.182C1331.28 119.22 1331.39 119.239 1331.53 119.239C1331.62 119.239 1331.73 119.227 1331.86 119.205C1331.99 119.182 1332.08 119.163 1332.14 119.148L1332.6 121.352C1332.46 121.394 1332.26 121.445 1331.99 121.506C1331.74 121.566 1331.43 121.606 1331.07 121.625C1330.35 121.663 1329.75 121.589 1329.26 121.403C1328.77 121.214 1328.41 120.917 1328.16 120.511C1327.91 120.106 1327.79 119.598 1327.8 118.989V110.682Z" fill="#F0F5FB"/>
<path d="M1290.62 144.92C1290.56 144.383 1290.31 143.966 1289.88 143.67C1289.44 143.371 1288.88 143.222 1288.22 143.222C1287.74 143.222 1287.33 143.297 1286.98 143.449C1286.63 143.597 1286.36 143.801 1286.16 144.062C1285.98 144.32 1285.88 144.614 1285.88 144.943C1285.88 145.22 1285.95 145.458 1286.07 145.659C1286.21 145.86 1286.38 146.028 1286.59 146.165C1286.81 146.297 1287.04 146.409 1287.28 146.5C1287.53 146.587 1287.77 146.659 1287.99 146.716L1289.13 147.011C1289.5 147.102 1289.88 147.225 1290.27 147.381C1290.66 147.536 1291.02 147.741 1291.36 147.994C1291.69 148.248 1291.96 148.562 1292.16 148.938C1292.37 149.312 1292.48 149.761 1292.48 150.284C1292.48 150.943 1292.31 151.528 1291.97 152.04C1291.63 152.551 1291.14 152.955 1290.49 153.25C1289.85 153.545 1289.08 153.693 1288.17 153.693C1287.3 153.693 1286.55 153.555 1285.91 153.278C1285.27 153.002 1284.77 152.61 1284.41 152.102C1284.05 151.591 1283.86 150.985 1283.82 150.284H1285.58C1285.61 150.705 1285.75 151.055 1285.99 151.335C1286.23 151.612 1286.54 151.818 1286.91 151.955C1287.29 152.087 1287.71 152.153 1288.16 152.153C1288.66 152.153 1289.1 152.076 1289.48 151.92C1289.87 151.761 1290.18 151.542 1290.4 151.261C1290.63 150.977 1290.74 150.646 1290.74 150.267C1290.74 149.922 1290.64 149.64 1290.44 149.42C1290.25 149.201 1289.99 149.019 1289.65 148.875C1289.32 148.731 1288.95 148.604 1288.53 148.494L1287.16 148.119C1286.23 147.866 1285.49 147.492 1284.94 147C1284.4 146.508 1284.13 145.856 1284.13 145.045C1284.13 144.375 1284.31 143.79 1284.68 143.29C1285.04 142.79 1285.53 142.402 1286.15 142.125C1286.77 141.845 1287.48 141.705 1288.26 141.705C1289.04 141.705 1289.74 141.843 1290.34 142.119C1290.95 142.396 1291.42 142.777 1291.77 143.261C1292.12 143.742 1292.3 144.295 1292.32 144.92H1290.62ZM1296.14 148.318V153.5H1294.44V141.864H1296.12V146.193H1296.22C1296.43 145.723 1296.74 145.35 1297.16 145.074C1297.58 144.797 1298.13 144.659 1298.81 144.659C1299.41 144.659 1299.93 144.782 1300.38 145.028C1300.83 145.275 1301.18 145.642 1301.42 146.131C1301.67 146.616 1301.8 147.222 1301.8 147.949V153.5H1300.1V148.153C1300.1 147.513 1299.93 147.017 1299.6 146.665C1299.27 146.309 1298.82 146.131 1298.23 146.131C1297.83 146.131 1297.47 146.216 1297.15 146.386C1296.83 146.557 1296.59 146.807 1296.4 147.136C1296.23 147.462 1296.14 147.856 1296.14 148.318ZM1307.74 153.676C1306.92 153.676 1306.21 153.489 1305.6 153.114C1304.99 152.739 1304.51 152.214 1304.18 151.54C1303.84 150.866 1303.67 150.078 1303.67 149.176C1303.67 148.271 1303.84 147.479 1304.18 146.801C1304.51 146.123 1304.99 145.597 1305.6 145.222C1306.21 144.847 1306.92 144.659 1307.74 144.659C1308.56 144.659 1309.27 144.847 1309.88 145.222C1310.49 145.597 1310.97 146.123 1311.3 146.801C1311.64 147.479 1311.81 148.271 1311.81 149.176C1311.81 150.078 1311.64 150.866 1311.3 151.54C1310.97 152.214 1310.49 152.739 1309.88 153.114C1309.27 153.489 1308.56 153.676 1307.74 153.676ZM1307.75 152.25C1308.28 152.25 1308.72 152.11 1309.06 151.83C1309.41 151.549 1309.67 151.176 1309.84 150.71C1310.01 150.244 1310.09 149.731 1310.09 149.17C1310.09 148.614 1310.01 148.102 1309.84 147.636C1309.67 147.167 1309.41 146.79 1309.06 146.506C1308.72 146.222 1308.28 146.08 1307.75 146.08C1307.21 146.08 1306.77 146.222 1306.42 146.506C1306.07 146.79 1305.81 147.167 1305.64 147.636C1305.47 148.102 1305.39 148.614 1305.39 149.17C1305.39 149.731 1305.47 150.244 1305.64 150.71C1305.81 151.176 1306.07 151.549 1306.42 151.83C1306.77 152.11 1307.21 152.25 1307.75 152.25ZM1313.7 156.773V144.773H1315.36V146.188H1315.51C1315.6 146.006 1315.75 145.795 1315.93 145.557C1316.12 145.318 1316.38 145.11 1316.7 144.932C1317.03 144.75 1317.47 144.659 1318.01 144.659C1318.72 144.659 1319.34 144.837 1319.9 145.193C1320.45 145.549 1320.88 146.062 1321.2 146.733C1321.52 147.403 1321.68 148.21 1321.68 149.153C1321.68 150.097 1321.52 150.905 1321.2 151.58C1320.89 152.25 1320.46 152.767 1319.91 153.131C1319.36 153.491 1318.73 153.67 1318.03 153.67C1317.5 153.67 1317.06 153.581 1316.73 153.403C1316.39 153.225 1316.13 153.017 1315.94 152.778C1315.75 152.54 1315.61 152.328 1315.51 152.142H1315.4V156.773H1313.7ZM1315.37 149.136C1315.37 149.75 1315.46 150.288 1315.64 150.75C1315.81 151.212 1316.07 151.574 1316.41 151.835C1316.75 152.093 1317.16 152.222 1317.65 152.222C1318.16 152.222 1318.58 152.087 1318.92 151.818C1319.26 151.545 1319.52 151.176 1319.69 150.71C1319.87 150.244 1319.96 149.72 1319.96 149.136C1319.96 148.561 1319.87 148.044 1319.7 147.585C1319.53 147.127 1319.27 146.765 1318.93 146.5C1318.59 146.235 1318.16 146.102 1317.65 146.102C1317.16 146.102 1316.74 146.229 1316.4 146.483C1316.06 146.737 1315.8 147.091 1315.63 147.545C1315.46 148 1315.37 148.53 1315.37 149.136Z" fill="#F0F5FB"/>
<path d="M1284.28 175.5V163.864H1288.54C1289.37 163.864 1290.05 164 1290.59 164.273C1291.13 164.542 1291.54 164.907 1291.81 165.369C1292.08 165.828 1292.21 166.345 1292.21 166.92C1292.21 167.405 1292.12 167.814 1291.94 168.148C1291.77 168.477 1291.53 168.742 1291.23 168.943C1290.93 169.14 1290.61 169.284 1290.25 169.375V169.489C1290.64 169.508 1291.01 169.633 1291.38 169.864C1291.75 170.091 1292.06 170.415 1292.3 170.835C1292.54 171.256 1292.66 171.767 1292.66 172.369C1292.66 172.964 1292.52 173.498 1292.24 173.972C1291.97 174.441 1291.54 174.814 1290.96 175.091C1290.38 175.364 1289.64 175.5 1288.74 175.5H1284.28ZM1286.03 173.994H1288.57C1289.41 173.994 1290.01 173.831 1290.38 173.506C1290.74 173.18 1290.92 172.773 1290.92 172.284C1290.92 171.917 1290.83 171.58 1290.64 171.273C1290.46 170.966 1290.19 170.722 1289.85 170.54C1289.51 170.358 1289.1 170.267 1288.63 170.267H1286.03V173.994ZM1286.03 168.898H1288.39C1288.78 168.898 1289.13 168.822 1289.45 168.67C1289.77 168.519 1290.02 168.307 1290.2 168.034C1290.39 167.758 1290.49 167.432 1290.49 167.057C1290.49 166.576 1290.32 166.172 1289.98 165.847C1289.65 165.521 1289.13 165.358 1288.43 165.358H1286.03V168.898ZM1296.31 163.864V175.5H1294.61V163.864H1296.31ZM1302.27 175.676C1301.45 175.676 1300.74 175.489 1300.13 175.114C1299.52 174.739 1299.05 174.214 1298.71 173.54C1298.37 172.866 1298.2 172.078 1298.2 171.176C1298.2 170.271 1298.37 169.479 1298.71 168.801C1299.05 168.123 1299.52 167.597 1300.13 167.222C1300.74 166.847 1301.45 166.659 1302.27 166.659C1303.09 166.659 1303.8 166.847 1304.41 167.222C1305.02 167.597 1305.5 168.123 1305.83 168.801C1306.17 169.479 1306.34 170.271 1306.34 171.176C1306.34 172.078 1306.17 172.866 1305.83 173.54C1305.5 174.214 1305.02 174.739 1304.41 175.114C1303.8 175.489 1303.09 175.676 1302.27 175.676ZM1302.28 174.25C1302.81 174.25 1303.25 174.11 1303.6 173.83C1303.94 173.549 1304.2 173.176 1304.37 172.71C1304.54 172.244 1304.62 171.731 1304.62 171.17C1304.62 170.614 1304.54 170.102 1304.37 169.636C1304.2 169.167 1303.94 168.79 1303.6 168.506C1303.25 168.222 1302.81 168.08 1302.28 168.08C1301.74 168.08 1301.3 168.222 1300.95 168.506C1300.6 168.79 1300.34 169.167 1300.17 169.636C1300 170.102 1299.92 170.614 1299.92 171.17C1299.92 171.731 1300 172.244 1300.17 172.71C1300.34 173.176 1300.6 173.549 1300.95 173.83C1301.3 174.11 1301.74 174.25 1302.28 174.25ZM1311.89 178.955C1311.2 178.955 1310.61 178.864 1310.11 178.682C1309.61 178.5 1309.2 178.259 1308.89 177.96C1308.57 177.661 1308.34 177.333 1308.18 176.977L1309.64 176.375C1309.75 176.542 1309.88 176.718 1310.05 176.903C1310.23 177.093 1310.46 177.254 1310.76 177.386C1311.06 177.519 1311.44 177.585 1311.91 177.585C1312.56 177.585 1313.09 177.428 1313.51 177.114C1313.93 176.803 1314.14 176.307 1314.14 175.625V173.909H1314.03C1313.93 174.095 1313.78 174.301 1313.59 174.528C1313.4 174.756 1313.14 174.953 1312.8 175.119C1312.47 175.286 1312.04 175.369 1311.5 175.369C1310.81 175.369 1310.19 175.208 1309.64 174.886C1309.09 174.561 1308.65 174.081 1308.33 173.449C1308.01 172.812 1307.86 172.03 1307.86 171.102C1307.86 170.174 1308.01 169.379 1308.33 168.716C1308.64 168.053 1309.08 167.545 1309.63 167.193C1310.19 166.837 1310.81 166.659 1311.51 166.659C1312.06 166.659 1312.49 166.75 1312.83 166.932C1313.16 167.11 1313.42 167.318 1313.61 167.557C1313.79 167.795 1313.94 168.006 1314.04 168.188H1314.17V166.773H1315.83V175.693C1315.83 176.443 1315.66 177.059 1315.31 177.54C1314.96 178.021 1314.49 178.377 1313.89 178.608C1313.3 178.839 1312.64 178.955 1311.89 178.955ZM1311.88 173.96C1312.37 173.96 1312.78 173.847 1313.12 173.619C1313.46 173.388 1313.71 173.059 1313.89 172.631C1314.07 172.199 1314.16 171.682 1314.16 171.08C1314.16 170.492 1314.07 169.975 1313.89 169.528C1313.72 169.081 1313.46 168.733 1313.13 168.483C1312.79 168.229 1312.37 168.102 1311.88 168.102C1311.37 168.102 1310.94 168.235 1310.6 168.5C1310.26 168.761 1310 169.117 1309.83 169.568C1309.66 170.019 1309.57 170.523 1309.57 171.08C1309.57 171.652 1309.66 172.153 1309.83 172.585C1310.01 173.017 1310.26 173.354 1310.61 173.597C1310.95 173.839 1311.37 173.96 1311.88 173.96Z" fill="#F0F5FB"/>
<path d="M1284.28 197.5V185.864H1291.49V187.375H1286.03V190.92H1290.98V192.426H1286.03V197.5H1284.28ZM1293.18 197.5H1291.32L1295.51 185.864H1297.54L1301.72 197.5H1299.86L1296.57 187.977H1296.48L1293.18 197.5ZM1293.5 192.943H1299.54V194.42H1293.5V192.943ZM1307.13 193.727H1308.86L1310.08 195.312L1310.65 196.017L1312.59 198.545H1310.79L1309.5 196.858L1309.06 196.244L1307.13 193.727ZM1312.96 191.682C1312.96 192.924 1312.74 193.992 1312.28 194.886C1311.83 195.777 1311.21 196.462 1310.41 196.943C1309.63 197.42 1308.73 197.659 1307.73 197.659C1306.72 197.659 1305.82 197.42 1305.03 196.943C1304.24 196.462 1303.62 195.775 1303.16 194.881C1302.71 193.987 1302.48 192.92 1302.48 191.682C1302.48 190.439 1302.71 189.373 1303.16 188.483C1303.62 187.589 1304.24 186.903 1305.03 186.426C1305.82 185.945 1306.72 185.705 1307.73 185.705C1308.73 185.705 1309.63 185.945 1310.41 186.426C1311.21 186.903 1311.83 187.589 1312.28 188.483C1312.74 189.373 1312.96 190.439 1312.96 191.682ZM1311.23 191.682C1311.23 190.735 1311.07 189.937 1310.77 189.29C1310.46 188.638 1310.05 188.146 1309.52 187.812C1308.99 187.475 1308.39 187.307 1307.73 187.307C1307.06 187.307 1306.46 187.475 1305.93 187.812C1305.4 188.146 1304.99 188.638 1304.68 189.29C1304.38 189.937 1304.23 190.735 1304.23 191.682C1304.23 192.629 1304.38 193.428 1304.68 194.08C1304.99 194.727 1305.4 195.22 1305.93 195.557C1306.46 195.89 1307.06 196.057 1307.73 196.057C1308.39 196.057 1308.99 195.89 1309.52 195.557C1310.05 195.22 1310.46 194.727 1310.77 194.08C1311.07 193.428 1311.23 192.629 1311.23 191.682ZM1321.56 190.903L1320.02 191.176C1319.95 190.979 1319.85 190.792 1319.71 190.614C1319.57 190.436 1319.39 190.29 1319.15 190.176C1318.92 190.062 1318.63 190.006 1318.27 190.006C1317.79 190.006 1317.39 190.114 1317.07 190.33C1316.75 190.542 1316.59 190.816 1316.59 191.153C1316.59 191.445 1316.69 191.68 1316.91 191.858C1317.13 192.036 1317.47 192.182 1317.95 192.295L1319.34 192.614C1320.14 192.799 1320.74 193.085 1321.14 193.472C1321.53 193.858 1321.73 194.36 1321.73 194.977C1321.73 195.5 1321.58 195.966 1321.27 196.375C1320.97 196.78 1320.55 197.098 1320.02 197.33C1319.48 197.561 1318.86 197.676 1318.16 197.676C1317.18 197.676 1316.38 197.468 1315.77 197.051C1315.15 196.631 1314.77 196.034 1314.63 195.261L1316.27 195.011C1316.38 195.439 1316.59 195.763 1316.9 195.983C1317.22 196.199 1317.64 196.307 1318.15 196.307C1318.7 196.307 1319.15 196.191 1319.48 195.96C1319.82 195.725 1319.98 195.439 1319.98 195.102C1319.98 194.83 1319.88 194.6 1319.68 194.415C1319.48 194.229 1319.17 194.089 1318.75 193.994L1317.27 193.67C1316.46 193.485 1315.86 193.189 1315.47 192.784C1315.08 192.379 1314.89 191.866 1314.89 191.244C1314.89 190.729 1315.03 190.278 1315.32 189.892C1315.61 189.506 1316 189.205 1316.51 188.989C1317.02 188.769 1317.6 188.659 1318.26 188.659C1319.2 188.659 1319.94 188.864 1320.48 189.273C1321.02 189.678 1321.38 190.222 1321.56 190.903Z" fill="#F0F5FB"/>
<path d="M1293.94 211.648H1292.17C1292.1 211.269 1291.98 210.936 1291.79 210.648C1291.6 210.36 1291.38 210.116 1291.11 209.915C1290.84 209.714 1290.54 209.562 1290.2 209.46C1289.88 209.358 1289.52 209.307 1289.15 209.307C1288.48 209.307 1287.88 209.475 1287.35 209.812C1286.83 210.15 1286.41 210.644 1286.1 211.295C1285.8 211.947 1285.65 212.742 1285.65 213.682C1285.65 214.629 1285.8 215.428 1286.1 216.08C1286.41 216.731 1286.83 217.223 1287.36 217.557C1287.89 217.89 1288.48 218.057 1289.15 218.057C1289.52 218.057 1289.86 218.008 1290.19 217.909C1290.53 217.807 1290.83 217.657 1291.1 217.46C1291.37 217.263 1291.59 217.023 1291.78 216.739C1291.97 216.451 1292.1 216.121 1292.17 215.75L1293.94 215.756C1293.85 216.328 1293.66 216.854 1293.39 217.335C1293.12 217.812 1292.78 218.225 1292.35 218.574C1291.93 218.919 1291.45 219.186 1290.91 219.375C1290.37 219.564 1289.78 219.659 1289.14 219.659C1288.13 219.659 1287.23 219.42 1286.44 218.943C1285.66 218.462 1285.03 217.775 1284.58 216.881C1284.13 215.987 1283.9 214.92 1283.9 213.682C1283.9 212.439 1284.13 211.373 1284.59 210.483C1285.04 209.589 1285.66 208.903 1286.45 208.426C1287.24 207.945 1288.13 207.705 1289.14 207.705C1289.75 207.705 1290.33 207.794 1290.86 207.972C1291.4 208.146 1291.88 208.403 1292.31 208.744C1292.74 209.081 1293.09 209.494 1293.38 209.983C1293.66 210.468 1293.84 211.023 1293.94 211.648ZM1299.58 219.676C1298.77 219.676 1298.05 219.489 1297.44 219.114C1296.83 218.739 1296.36 218.214 1296.02 217.54C1295.68 216.866 1295.52 216.078 1295.52 215.176C1295.52 214.271 1295.68 213.479 1296.02 212.801C1296.36 212.123 1296.83 211.597 1297.44 211.222C1298.05 210.847 1298.77 210.659 1299.58 210.659C1300.4 210.659 1301.12 210.847 1301.73 211.222C1302.34 211.597 1302.81 212.123 1303.15 212.801C1303.48 213.479 1303.65 214.271 1303.65 215.176C1303.65 216.078 1303.48 216.866 1303.15 217.54C1302.81 218.214 1302.34 218.739 1301.73 219.114C1301.12 219.489 1300.4 219.676 1299.58 219.676ZM1299.59 218.25C1300.12 218.25 1300.56 218.11 1300.91 217.83C1301.26 217.549 1301.51 217.176 1301.68 216.71C1301.85 216.244 1301.94 215.731 1301.94 215.17C1301.94 214.614 1301.85 214.102 1301.68 213.636C1301.51 213.167 1301.26 212.79 1300.91 212.506C1300.56 212.222 1300.12 212.08 1299.59 212.08C1299.06 212.08 1298.61 212.222 1298.26 212.506C1297.91 212.79 1297.65 213.167 1297.48 213.636C1297.31 214.102 1297.23 214.614 1297.23 215.17C1297.23 215.731 1297.31 216.244 1297.48 216.71C1297.65 217.176 1297.91 217.549 1298.26 217.83C1298.61 218.11 1299.06 218.25 1299.59 218.25ZM1307.25 214.318V219.5H1305.55V210.773H1307.18V212.193H1307.29C1307.49 211.731 1307.8 211.36 1308.23 211.08C1308.66 210.799 1309.21 210.659 1309.86 210.659C1310.46 210.659 1310.98 210.784 1311.42 211.034C1311.87 211.28 1312.22 211.648 1312.46 212.136C1312.71 212.625 1312.83 213.229 1312.83 213.949V219.5H1311.13V214.153C1311.13 213.521 1310.97 213.027 1310.64 212.67C1310.31 212.311 1309.86 212.131 1309.28 212.131C1308.89 212.131 1308.54 212.216 1308.23 212.386C1307.93 212.557 1307.69 212.807 1307.51 213.136C1307.33 213.462 1307.25 213.856 1307.25 214.318ZM1319.18 210.773V212.136H1314.42V210.773H1319.18ZM1315.7 208.682H1317.39V216.938C1317.39 217.267 1317.44 217.515 1317.54 217.682C1317.64 217.845 1317.77 217.956 1317.92 218.017C1318.08 218.074 1318.25 218.102 1318.44 218.102C1318.58 218.102 1318.7 218.093 1318.8 218.074C1318.9 218.055 1318.98 218.04 1319.04 218.028L1319.34 219.432C1319.25 219.47 1319.11 219.508 1318.92 219.545C1318.74 219.587 1318.51 219.61 1318.24 219.614C1317.79 219.621 1317.38 219.542 1316.99 219.375C1316.61 219.208 1316.29 218.951 1316.05 218.602C1315.82 218.254 1315.7 217.816 1315.7 217.29V208.682ZM1323.6 219.693C1323.05 219.693 1322.55 219.591 1322.1 219.386C1321.66 219.178 1321.3 218.877 1321.04 218.483C1320.78 218.089 1320.65 217.606 1320.65 217.034C1320.65 216.542 1320.75 216.136 1320.94 215.818C1321.13 215.5 1321.38 215.248 1321.71 215.062C1322.03 214.877 1322.39 214.737 1322.79 214.642C1323.18 214.547 1323.59 214.475 1324 214.426C1324.52 214.366 1324.95 214.316 1325.27 214.278C1325.6 214.237 1325.84 214.17 1325.98 214.08C1326.13 213.989 1326.21 213.841 1326.21 213.636V213.597C1326.21 213.1 1326.07 212.716 1325.79 212.443C1325.51 212.17 1325.1 212.034 1324.55 212.034C1323.97 212.034 1323.52 212.161 1323.19 212.415C1322.87 212.665 1322.64 212.943 1322.52 213.25L1320.92 212.886C1321.11 212.356 1321.39 211.928 1321.75 211.602C1322.12 211.273 1322.54 211.034 1323.02 210.886C1323.5 210.735 1324 210.659 1324.52 210.659C1324.87 210.659 1325.24 210.701 1325.63 210.784C1326.03 210.864 1326.39 211.011 1326.73 211.227C1327.08 211.443 1327.36 211.752 1327.58 212.153C1327.8 212.551 1327.91 213.068 1327.91 213.705V219.5H1326.25V218.307H1326.18C1326.07 218.527 1325.91 218.742 1325.69 218.955C1325.47 219.167 1325.19 219.343 1324.84 219.483C1324.5 219.623 1324.08 219.693 1323.6 219.693ZM1323.97 218.33C1324.44 218.33 1324.84 218.237 1325.18 218.051C1325.51 217.866 1325.77 217.623 1325.94 217.324C1326.12 217.021 1326.21 216.697 1326.21 216.352V215.227C1326.15 215.288 1326.03 215.345 1325.86 215.398C1325.69 215.447 1325.49 215.491 1325.27 215.528C1325.05 215.562 1324.84 215.595 1324.63 215.625C1324.42 215.652 1324.25 215.674 1324.11 215.693C1323.78 215.735 1323.48 215.805 1323.21 215.903C1322.94 216.002 1322.72 216.144 1322.56 216.33C1322.4 216.511 1322.32 216.754 1322.32 217.057C1322.32 217.477 1322.47 217.795 1322.79 218.011C1323.1 218.223 1323.49 218.33 1323.97 218.33ZM1333.85 219.676C1333 219.676 1332.28 219.485 1331.67 219.102C1331.06 218.716 1330.6 218.184 1330.27 217.506C1329.94 216.828 1329.78 216.051 1329.78 215.176C1329.78 214.29 1329.95 213.508 1330.28 212.83C1330.61 212.148 1331.08 211.616 1331.69 211.233C1332.3 210.85 1333.01 210.659 1333.83 210.659C1334.5 210.659 1335.09 210.782 1335.61 211.028C1336.12 211.271 1336.54 211.612 1336.86 212.051C1337.18 212.491 1337.37 213.004 1337.43 213.591H1335.78C1335.69 213.182 1335.48 212.83 1335.16 212.534C1334.83 212.239 1334.4 212.091 1333.86 212.091C1333.39 212.091 1332.97 212.216 1332.62 212.466C1332.26 212.712 1331.99 213.064 1331.79 213.523C1331.6 213.977 1331.5 214.515 1331.5 215.136C1331.5 215.773 1331.59 216.322 1331.79 216.784C1331.98 217.246 1332.25 217.604 1332.61 217.858C1332.96 218.112 1333.38 218.239 1333.86 218.239C1334.18 218.239 1334.47 218.18 1334.74 218.062C1335 217.941 1335.22 217.769 1335.4 217.545C1335.58 217.322 1335.71 217.053 1335.78 216.739H1337.43C1337.37 217.303 1337.19 217.807 1336.88 218.25C1336.58 218.693 1336.17 219.042 1335.65 219.295C1335.14 219.549 1334.54 219.676 1333.85 219.676ZM1343.33 210.773V212.136H1338.56V210.773H1343.33ZM1339.84 208.682H1341.54V216.938C1341.54 217.267 1341.58 217.515 1341.68 217.682C1341.78 217.845 1341.91 217.956 1342.06 218.017C1342.22 218.074 1342.4 218.102 1342.58 218.102C1342.72 218.102 1342.84 218.093 1342.94 218.074C1343.04 218.055 1343.12 218.04 1343.18 218.028L1343.48 219.432C1343.39 219.47 1343.25 219.508 1343.06 219.545C1342.88 219.587 1342.65 219.61 1342.38 219.614C1341.94 219.621 1341.52 219.542 1341.13 219.375C1340.75 219.208 1340.43 218.951 1340.19 218.602C1339.96 218.254 1339.84 217.816 1339.84 217.29V208.682ZM1357.06 207.864H1358.82V215.517C1358.82 216.331 1358.63 217.053 1358.25 217.682C1357.86 218.307 1357.33 218.799 1356.63 219.159C1355.94 219.515 1355.13 219.693 1354.19 219.693C1353.27 219.693 1352.46 219.515 1351.76 219.159C1351.07 218.799 1350.53 218.307 1350.15 217.682C1349.77 217.053 1349.58 216.331 1349.58 215.517V207.864H1351.33V215.375C1351.33 215.902 1351.45 216.369 1351.68 216.778C1351.91 217.188 1352.24 217.509 1352.67 217.744C1353.1 217.975 1353.61 218.091 1354.19 218.091C1354.79 218.091 1355.29 217.975 1355.72 217.744C1356.15 217.509 1356.48 217.188 1356.71 216.778C1356.94 216.369 1357.06 215.902 1357.06 215.375V207.864ZM1367.78 212.903L1366.24 213.176C1366.17 212.979 1366.07 212.792 1365.93 212.614C1365.79 212.436 1365.61 212.29 1365.37 212.176C1365.14 212.062 1364.84 212.006 1364.49 212.006C1364.01 212.006 1363.61 212.114 1363.29 212.33C1362.96 212.542 1362.8 212.816 1362.8 213.153C1362.8 213.445 1362.91 213.68 1363.13 213.858C1363.34 214.036 1363.69 214.182 1364.17 214.295L1365.56 214.614C1366.36 214.799 1366.96 215.085 1367.36 215.472C1367.75 215.858 1367.95 216.36 1367.95 216.977C1367.95 217.5 1367.79 217.966 1367.49 218.375C1367.19 218.78 1366.77 219.098 1366.24 219.33C1365.7 219.561 1365.08 219.676 1364.38 219.676C1363.4 219.676 1362.6 219.468 1361.99 219.051C1361.37 218.631 1360.99 218.034 1360.85 217.261L1362.49 217.011C1362.59 217.439 1362.8 217.763 1363.12 217.983C1363.44 218.199 1363.86 218.307 1364.37 218.307C1364.92 218.307 1365.37 218.191 1365.7 217.96C1366.04 217.725 1366.2 217.439 1366.2 217.102C1366.2 216.83 1366.1 216.6 1365.89 216.415C1365.69 216.229 1365.39 216.089 1364.97 215.994L1363.49 215.67C1362.68 215.485 1362.07 215.189 1361.68 214.784C1361.3 214.379 1361.11 213.866 1361.11 213.244C1361.11 212.729 1361.25 212.278 1361.54 211.892C1361.82 211.506 1362.22 211.205 1362.73 210.989C1363.24 210.769 1363.82 210.659 1364.47 210.659C1365.42 210.659 1366.16 210.864 1366.7 211.273C1367.24 211.678 1367.6 212.222 1367.78 212.903Z" fill="#F0F5FB"/>
<path d="M1422.75 121.5V109.864H1425.91V118.955H1430.61V121.5H1422.75ZM1436.12 121.659C1435.19 121.659 1434.38 121.481 1433.71 121.125C1433.04 120.765 1432.52 120.25 1432.16 119.58C1431.8 118.905 1431.62 118.098 1431.62 117.159C1431.62 116.258 1431.8 115.47 1432.16 114.795C1432.53 114.121 1433.04 113.597 1433.7 113.222C1434.37 112.847 1435.15 112.659 1436.05 112.659C1436.71 112.659 1437.31 112.761 1437.84 112.966C1438.37 113.17 1438.83 113.468 1439.21 113.858C1439.59 114.244 1439.88 114.714 1440.08 115.267C1440.29 115.82 1440.39 116.443 1440.39 117.136V117.864H1432.6V116.136H1437.5C1437.5 115.886 1437.44 115.667 1437.31 115.477C1437.19 115.284 1437.03 115.134 1436.82 115.028C1436.61 114.919 1436.38 114.864 1436.12 114.864C1435.86 114.864 1435.63 114.919 1435.42 115.028C1435.21 115.134 1435.04 115.282 1434.91 115.472C1434.78 115.661 1434.72 115.883 1434.71 116.136V118C1434.71 118.28 1434.77 118.53 1434.88 118.75C1435 118.97 1435.17 119.142 1435.39 119.267C1435.61 119.392 1435.88 119.455 1436.19 119.455C1436.4 119.455 1436.6 119.424 1436.78 119.364C1436.96 119.303 1437.11 119.216 1437.24 119.102C1437.37 118.985 1437.47 118.845 1437.53 118.682H1440.39C1440.29 119.288 1440.06 119.814 1439.69 120.261C1439.32 120.705 1438.84 121.049 1438.23 121.295C1437.63 121.538 1436.92 121.659 1436.12 121.659ZM1445.88 124.955C1445 124.955 1444.25 124.83 1443.62 124.58C1443 124.333 1442.52 123.992 1442.18 123.557C1441.84 123.125 1441.64 122.629 1441.6 122.068H1444.62C1444.66 122.254 1444.73 122.403 1444.85 122.517C1444.97 122.631 1445.13 122.712 1445.32 122.761C1445.51 122.814 1445.73 122.841 1445.97 122.841C1446.37 122.841 1446.71 122.742 1446.97 122.545C1447.24 122.348 1447.38 121.992 1447.38 121.477V120H1447.28C1447.17 120.295 1447 120.547 1446.76 120.756C1446.53 120.96 1446.24 121.117 1445.91 121.227C1445.59 121.333 1445.22 121.386 1444.83 121.386C1444.21 121.386 1443.64 121.242 1443.11 120.955C1442.59 120.667 1442.18 120.21 1441.86 119.585C1441.55 118.96 1441.4 118.144 1441.4 117.136C1441.4 116.083 1441.56 115.227 1441.89 114.568C1442.22 113.909 1442.64 113.426 1443.16 113.119C1443.68 112.812 1444.23 112.659 1444.81 112.659C1445.24 112.659 1445.62 112.735 1445.94 112.886C1446.27 113.034 1446.54 113.233 1446.76 113.483C1446.98 113.729 1447.15 114 1447.26 114.295H1447.33V112.773H1450.47V121.477C1450.47 122.216 1450.27 122.843 1449.89 123.358C1449.51 123.877 1448.98 124.273 1448.29 124.545C1447.6 124.818 1446.8 124.955 1445.88 124.955ZM1445.99 119.159C1446.28 119.159 1446.52 119.08 1446.73 118.92C1446.94 118.758 1447.09 118.527 1447.2 118.227C1447.32 117.924 1447.38 117.561 1447.38 117.136C1447.38 116.705 1447.32 116.335 1447.2 116.028C1447.09 115.718 1446.94 115.481 1446.73 115.318C1446.52 115.152 1446.28 115.068 1445.99 115.068C1445.7 115.068 1445.45 115.152 1445.25 115.318C1445.05 115.481 1444.89 115.718 1444.78 116.028C1444.68 116.335 1444.62 116.705 1444.62 117.136C1444.62 117.568 1444.68 117.936 1444.78 118.239C1444.89 118.538 1445.05 118.767 1445.25 118.926C1445.45 119.081 1445.7 119.159 1445.99 119.159ZM1454.49 121.636C1453.94 121.636 1453.44 121.545 1453.02 121.364C1452.59 121.178 1452.26 120.898 1452.02 120.523C1451.77 120.148 1451.65 119.67 1451.65 119.091C1451.65 118.614 1451.73 118.206 1451.9 117.869C1452.06 117.528 1452.29 117.25 1452.58 117.034C1452.87 116.818 1453.21 116.653 1453.6 116.54C1453.99 116.426 1454.41 116.352 1454.86 116.318C1455.35 116.28 1455.74 116.235 1456.03 116.182C1456.33 116.125 1456.55 116.047 1456.68 115.949C1456.81 115.847 1456.88 115.712 1456.88 115.545V115.523C1456.88 115.295 1456.79 115.121 1456.62 115C1456.44 114.879 1456.22 114.818 1455.95 114.818C1455.65 114.818 1455.4 114.884 1455.21 115.017C1455.03 115.146 1454.92 115.345 1454.88 115.614H1451.99C1452.03 115.083 1452.2 114.595 1452.5 114.148C1452.8 113.697 1453.24 113.337 1453.82 113.068C1454.4 112.795 1455.13 112.659 1455.99 112.659C1456.62 112.659 1457.18 112.733 1457.67 112.881C1458.17 113.025 1458.59 113.227 1458.94 113.489C1459.29 113.746 1459.56 114.049 1459.74 114.398C1459.92 114.742 1460.02 115.117 1460.02 115.523V121.5H1457.08V120.273H1457.02C1456.84 120.598 1456.63 120.862 1456.38 121.062C1456.13 121.263 1455.85 121.409 1455.53 121.5C1455.22 121.591 1454.87 121.636 1454.49 121.636ZM1455.52 119.659C1455.75 119.659 1455.98 119.61 1456.19 119.511C1456.4 119.413 1456.57 119.271 1456.7 119.085C1456.84 118.9 1456.9 118.674 1456.9 118.409V117.682C1456.82 117.716 1456.73 117.748 1456.63 117.778C1456.54 117.809 1456.45 117.837 1456.34 117.864C1456.24 117.89 1456.13 117.915 1456.01 117.938C1455.9 117.96 1455.78 117.981 1455.65 118C1455.41 118.038 1455.21 118.1 1455.06 118.188C1454.9 118.271 1454.79 118.375 1454.71 118.5C1454.64 118.621 1454.61 118.758 1454.61 118.909C1454.61 119.152 1454.69 119.337 1454.86 119.466C1455.03 119.595 1455.25 119.659 1455.52 119.659ZM1464.65 109.864V121.5H1461.51V109.864H1464.65ZM1472.55 109.864V121.5H1469.39V109.864H1472.55ZM1477.23 116.591V121.5H1474.09V112.773H1477.07V114.432H1477.16C1477.35 113.879 1477.68 113.445 1478.16 113.131C1478.64 112.816 1479.2 112.659 1479.84 112.659C1480.46 112.659 1481 112.801 1481.45 113.085C1481.91 113.366 1482.26 113.752 1482.51 114.244C1482.77 114.737 1482.89 115.299 1482.89 115.932V121.5H1479.75V116.591C1479.76 116.159 1479.65 115.82 1479.42 115.574C1479.2 115.328 1478.9 115.205 1478.5 115.205C1478.24 115.205 1478.02 115.261 1477.83 115.375C1477.64 115.485 1477.49 115.644 1477.39 115.852C1477.29 116.057 1477.23 116.303 1477.23 116.591ZM1489.66 112.773V115.045H1483.82V112.773H1489.66ZM1484.94 121.5V112.523C1484.94 111.803 1485.06 111.206 1485.32 110.733C1485.58 110.259 1485.94 109.905 1486.41 109.67C1486.88 109.436 1487.44 109.318 1488.07 109.318C1488.47 109.318 1488.86 109.348 1489.23 109.409C1489.61 109.47 1489.89 109.523 1490.07 109.568L1489.62 111.818C1489.5 111.784 1489.37 111.758 1489.22 111.739C1489.07 111.716 1488.94 111.705 1488.82 111.705C1488.53 111.705 1488.33 111.767 1488.23 111.892C1488.12 112.017 1488.07 112.182 1488.07 112.386V121.5H1484.94ZM1494.81 121.659C1493.87 121.659 1493.05 121.472 1492.38 121.097C1491.71 120.718 1491.19 120.191 1490.83 119.517C1490.47 118.839 1490.29 118.053 1490.29 117.159C1490.29 116.265 1490.47 115.481 1490.83 114.807C1491.19 114.129 1491.71 113.602 1492.38 113.227C1493.05 112.848 1493.87 112.659 1494.81 112.659C1495.76 112.659 1496.57 112.848 1497.24 113.227C1497.92 113.602 1498.44 114.129 1498.8 114.807C1499.16 115.481 1499.34 116.265 1499.34 117.159C1499.34 118.053 1499.16 118.839 1498.8 119.517C1498.44 120.191 1497.92 120.718 1497.24 121.097C1496.57 121.472 1495.76 121.659 1494.81 121.659ZM1494.84 119.341C1495.1 119.341 1495.33 119.252 1495.52 119.074C1495.72 118.896 1495.87 118.642 1495.97 118.312C1496.08 117.983 1496.13 117.591 1496.13 117.136C1496.13 116.678 1496.08 116.286 1495.97 115.96C1495.87 115.631 1495.72 115.377 1495.52 115.199C1495.33 115.021 1495.1 114.932 1494.84 114.932C1494.55 114.932 1494.31 115.021 1494.11 115.199C1493.91 115.377 1493.76 115.631 1493.65 115.96C1493.55 116.286 1493.49 116.678 1493.49 117.136C1493.49 117.591 1493.55 117.983 1493.65 118.312C1493.76 118.642 1493.91 118.896 1494.11 119.074C1494.31 119.252 1494.55 119.341 1494.84 119.341Z" fill="#F0F5FB"/>
<path d="M1422.7 143.375V141.864H1431.71V143.375H1428.08V153.5H1426.33V143.375H1422.7ZM1436.06 153.676C1435.2 153.676 1434.46 153.492 1433.84 153.125C1433.22 152.754 1432.74 152.233 1432.41 151.562C1432.07 150.888 1431.91 150.098 1431.91 149.193C1431.91 148.299 1432.07 147.511 1432.41 146.83C1432.74 146.148 1433.21 145.616 1433.82 145.233C1434.42 144.85 1435.13 144.659 1435.94 144.659C1436.43 144.659 1436.91 144.741 1437.37 144.903C1437.83 145.066 1438.25 145.322 1438.62 145.67C1438.98 146.019 1439.27 146.472 1439.49 147.028C1439.7 147.581 1439.8 148.254 1439.8 149.045V149.648H1432.87V148.375H1438.14C1438.14 147.928 1438.05 147.532 1437.87 147.188C1437.68 146.839 1437.43 146.564 1437.1 146.364C1436.77 146.163 1436.39 146.062 1435.95 146.062C1435.47 146.062 1435.06 146.18 1434.7 146.415C1434.35 146.646 1434.08 146.949 1433.88 147.324C1433.69 147.695 1433.6 148.098 1433.6 148.534V149.528C1433.6 150.112 1433.7 150.608 1433.91 151.017C1434.11 151.426 1434.4 151.739 1434.78 151.955C1435.15 152.167 1435.58 152.273 1436.08 152.273C1436.4 152.273 1436.69 152.227 1436.96 152.136C1437.22 152.042 1437.45 151.902 1437.64 151.716C1437.84 151.53 1437.99 151.301 1438.09 151.028L1439.7 151.318C1439.57 151.792 1439.34 152.206 1439 152.562C1438.67 152.915 1438.26 153.189 1437.76 153.386C1437.26 153.58 1436.7 153.676 1436.06 153.676ZM1441.69 153.5V144.773H1443.33V146.159H1443.42C1443.58 145.689 1443.86 145.32 1444.26 145.051C1444.67 144.778 1445.13 144.642 1445.64 144.642C1445.74 144.642 1445.87 144.646 1446.01 144.653C1446.16 144.661 1446.28 144.67 1446.36 144.682V146.307C1446.29 146.288 1446.17 146.267 1446 146.244C1445.82 146.218 1445.65 146.205 1445.47 146.205C1445.07 146.205 1444.71 146.29 1444.4 146.46C1444.09 146.627 1443.84 146.86 1443.66 147.159C1443.48 147.455 1443.39 147.792 1443.39 148.17V153.5H1441.69ZM1447.83 153.5V144.773H1449.46V146.193H1449.57C1449.75 145.712 1450.05 145.337 1450.46 145.068C1450.87 144.795 1451.37 144.659 1451.94 144.659C1452.53 144.659 1453.02 144.795 1453.41 145.068C1453.81 145.341 1454.1 145.716 1454.29 146.193H1454.38C1454.59 145.727 1454.92 145.356 1455.38 145.08C1455.83 144.799 1456.37 144.659 1457 144.659C1457.79 144.659 1458.44 144.907 1458.94 145.403C1459.44 145.9 1459.69 146.648 1459.69 147.648V153.5H1457.99V147.807C1457.99 147.216 1457.83 146.788 1457.51 146.523C1457.19 146.258 1456.8 146.125 1456.36 146.125C1455.8 146.125 1455.38 146.295 1455.07 146.636C1454.76 146.973 1454.61 147.407 1454.61 147.938V153.5H1452.91V147.699C1452.91 147.225 1452.77 146.845 1452.47 146.557C1452.18 146.269 1451.79 146.125 1451.32 146.125C1451 146.125 1450.7 146.21 1450.43 146.381C1450.16 146.547 1449.94 146.78 1449.77 147.08C1449.61 147.379 1449.53 147.725 1449.53 148.119V153.5H1447.83ZM1468.51 146.903L1466.97 147.176C1466.91 146.979 1466.8 146.792 1466.66 146.614C1466.53 146.436 1466.34 146.29 1466.11 146.176C1465.87 146.062 1465.58 146.006 1465.23 146.006C1464.74 146.006 1464.34 146.114 1464.02 146.33C1463.7 146.542 1463.54 146.816 1463.54 147.153C1463.54 147.445 1463.65 147.68 1463.86 147.858C1464.08 148.036 1464.43 148.182 1464.91 148.295L1466.29 148.614C1467.1 148.799 1467.7 149.085 1468.09 149.472C1468.48 149.858 1468.68 150.36 1468.68 150.977C1468.68 151.5 1468.53 151.966 1468.23 152.375C1467.93 152.78 1467.51 153.098 1466.97 153.33C1466.44 153.561 1465.82 153.676 1465.11 153.676C1464.13 153.676 1463.34 153.468 1462.72 153.051C1462.1 152.631 1461.72 152.034 1461.58 151.261L1463.23 151.011C1463.33 151.439 1463.54 151.763 1463.86 151.983C1464.17 152.199 1464.59 152.307 1465.1 152.307C1465.66 152.307 1466.1 152.191 1466.44 151.96C1466.77 151.725 1466.94 151.439 1466.94 151.102C1466.94 150.83 1466.83 150.6 1466.63 150.415C1466.43 150.229 1466.12 150.089 1465.7 149.994L1464.23 149.67C1463.41 149.485 1462.81 149.189 1462.42 148.784C1462.03 148.379 1461.84 147.866 1461.84 147.244C1461.84 146.729 1461.98 146.278 1462.27 145.892C1462.56 145.506 1462.96 145.205 1463.46 144.989C1463.97 144.769 1464.55 144.659 1465.21 144.659C1466.15 144.659 1466.89 144.864 1467.44 145.273C1467.98 145.678 1468.34 146.222 1468.51 146.903Z" fill="#F0F5FB"/>
<path d="M1423.28 175.5V163.864H1427.43C1428.33 163.864 1429.08 164.028 1429.68 164.358C1430.27 164.687 1430.72 165.138 1431.01 165.71C1431.31 166.278 1431.45 166.919 1431.45 167.631C1431.45 168.347 1431.3 168.991 1431.01 169.562C1430.71 170.131 1430.26 170.581 1429.66 170.915C1429.07 171.244 1428.32 171.409 1427.42 171.409H1424.57V169.92H1427.26C1427.83 169.92 1428.3 169.822 1428.65 169.625C1429.01 169.424 1429.27 169.152 1429.44 168.807C1429.6 168.462 1429.69 168.07 1429.69 167.631C1429.69 167.191 1429.6 166.801 1429.44 166.46C1429.27 166.119 1429.01 165.852 1428.65 165.659C1428.29 165.466 1427.82 165.369 1427.24 165.369H1425.03V175.5H1423.28ZM1433.38 175.5V166.773H1435.02V168.159H1435.11C1435.27 167.689 1435.55 167.32 1435.95 167.051C1436.36 166.778 1436.81 166.642 1437.33 166.642C1437.43 166.642 1437.56 166.646 1437.7 166.653C1437.85 166.661 1437.96 166.67 1438.05 166.682V168.307C1437.98 168.288 1437.86 168.267 1437.68 168.244C1437.51 168.218 1437.33 168.205 1437.16 168.205C1436.76 168.205 1436.4 168.29 1436.09 168.46C1435.78 168.627 1435.53 168.86 1435.35 169.159C1435.17 169.455 1435.08 169.792 1435.08 170.17V175.5H1433.38ZM1439.52 175.5V166.773H1441.22V175.5H1439.52ZM1440.38 165.426C1440.08 165.426 1439.83 165.328 1439.61 165.131C1439.41 164.93 1439.3 164.691 1439.3 164.415C1439.3 164.134 1439.41 163.896 1439.61 163.699C1439.83 163.498 1440.08 163.398 1440.38 163.398C1440.67 163.398 1440.92 163.498 1441.13 163.699C1441.34 163.896 1441.45 164.134 1441.45 164.415C1441.45 164.691 1441.34 164.93 1441.13 165.131C1440.92 165.328 1440.67 165.426 1440.38 165.426ZM1450.97 166.773L1447.8 175.5H1445.98L1442.81 166.773H1444.64L1446.85 173.489H1446.94L1449.14 166.773H1450.97ZM1454.85 175.693C1454.3 175.693 1453.8 175.591 1453.35 175.386C1452.91 175.178 1452.55 174.877 1452.29 174.483C1452.03 174.089 1451.9 173.606 1451.9 173.034C1451.9 172.542 1452 172.136 1452.19 171.818C1452.38 171.5 1452.63 171.248 1452.96 171.062C1453.28 170.877 1453.64 170.737 1454.04 170.642C1454.43 170.547 1454.84 170.475 1455.25 170.426C1455.77 170.366 1456.2 170.316 1456.52 170.278C1456.85 170.237 1457.09 170.17 1457.23 170.08C1457.38 169.989 1457.46 169.841 1457.46 169.636V169.597C1457.46 169.1 1457.32 168.716 1457.04 168.443C1456.76 168.17 1456.35 168.034 1455.8 168.034C1455.22 168.034 1454.77 168.161 1454.44 168.415C1454.12 168.665 1453.89 168.943 1453.77 169.25L1452.17 168.886C1452.36 168.356 1452.64 167.928 1453 167.602C1453.37 167.273 1453.79 167.034 1454.27 166.886C1454.75 166.735 1455.25 166.659 1455.77 166.659C1456.12 166.659 1456.49 166.701 1456.88 166.784C1457.28 166.864 1457.64 167.011 1457.98 167.227C1458.33 167.443 1458.61 167.752 1458.83 168.153C1459.05 168.551 1459.16 169.068 1459.16 169.705V175.5H1457.5V174.307H1457.43C1457.32 174.527 1457.16 174.742 1456.94 174.955C1456.72 175.167 1456.44 175.343 1456.09 175.483C1455.75 175.623 1455.33 175.693 1454.85 175.693ZM1455.22 174.33C1455.69 174.33 1456.09 174.237 1456.43 174.051C1456.76 173.866 1457.02 173.623 1457.19 173.324C1457.37 173.021 1457.46 172.697 1457.46 172.352V171.227C1457.4 171.288 1457.28 171.345 1457.11 171.398C1456.94 171.447 1456.74 171.491 1456.52 171.528C1456.3 171.562 1456.09 171.595 1455.88 171.625C1455.67 171.652 1455.5 171.674 1455.36 171.693C1455.03 171.735 1454.73 171.805 1454.46 171.903C1454.19 172.002 1453.97 172.144 1453.81 172.33C1453.65 172.511 1453.57 172.754 1453.57 173.057C1453.57 173.477 1453.72 173.795 1454.04 174.011C1454.35 174.223 1454.74 174.33 1455.22 174.33ZM1465.5 166.773V168.136H1460.73V166.773H1465.5ZM1462.01 164.682H1463.71V172.938C1463.71 173.267 1463.76 173.515 1463.86 173.682C1463.95 173.845 1464.08 173.956 1464.24 174.017C1464.39 174.074 1464.57 174.102 1464.75 174.102C1464.89 174.102 1465.01 174.093 1465.11 174.074C1465.21 174.055 1465.29 174.04 1465.35 174.028L1465.66 175.432C1465.56 175.47 1465.42 175.508 1465.24 175.545C1465.05 175.587 1464.83 175.61 1464.55 175.614C1464.11 175.621 1463.69 175.542 1463.3 175.375C1462.92 175.208 1462.61 174.951 1462.37 174.602C1462.13 174.254 1462.01 173.816 1462.01 173.29V164.682ZM1471.04 175.676C1470.18 175.676 1469.44 175.492 1468.82 175.125C1468.21 174.754 1467.73 174.233 1467.39 173.562C1467.06 172.888 1466.89 172.098 1466.89 171.193C1466.89 170.299 1467.06 169.511 1467.39 168.83C1467.73 168.148 1468.2 167.616 1468.8 167.233C1469.41 166.85 1470.11 166.659 1470.92 166.659C1471.42 166.659 1471.89 166.741 1472.36 166.903C1472.82 167.066 1473.23 167.322 1473.6 167.67C1473.97 168.019 1474.26 168.472 1474.47 169.028C1474.68 169.581 1474.79 170.254 1474.79 171.045V171.648H1467.85V170.375H1473.12C1473.12 169.928 1473.03 169.532 1472.85 169.188C1472.67 168.839 1472.41 168.564 1472.08 168.364C1471.76 168.163 1471.38 168.062 1470.94 168.062C1470.46 168.062 1470.04 168.18 1469.69 168.415C1469.33 168.646 1469.06 168.949 1468.87 169.324C1468.68 169.695 1468.58 170.098 1468.58 170.534V171.528C1468.58 172.112 1468.69 172.608 1468.89 173.017C1469.1 173.426 1469.39 173.739 1469.76 173.955C1470.13 174.167 1470.56 174.273 1471.06 174.273C1471.38 174.273 1471.68 174.227 1471.94 174.136C1472.21 174.042 1472.44 173.902 1472.63 173.716C1472.82 173.53 1472.97 173.301 1473.07 173.028L1474.68 173.318C1474.55 173.792 1474.32 174.206 1473.99 174.562C1473.66 174.915 1473.24 175.189 1472.74 175.386C1472.25 175.58 1471.68 175.676 1471.04 175.676ZM1481.04 175.5V163.864H1485.19C1486.1 163.864 1486.85 164.028 1487.44 164.358C1488.04 164.687 1488.48 165.138 1488.78 165.71C1489.07 166.278 1489.22 166.919 1489.22 167.631C1489.22 168.347 1489.07 168.991 1488.77 169.562C1488.48 170.131 1488.03 170.581 1487.43 170.915C1486.84 171.244 1486.09 171.409 1485.19 171.409H1482.33V169.92H1485.03C1485.6 169.92 1486.06 169.822 1486.42 169.625C1486.78 169.424 1487.04 169.152 1487.2 168.807C1487.37 168.462 1487.45 168.07 1487.45 167.631C1487.45 167.191 1487.37 166.801 1487.2 166.46C1487.04 166.119 1486.77 165.852 1486.41 165.659C1486.06 165.466 1485.59 165.369 1485 165.369H1482.8V175.5H1481.04ZM1494.71 175.676C1493.89 175.676 1493.18 175.489 1492.57 175.114C1491.96 174.739 1491.48 174.214 1491.15 173.54C1490.81 172.866 1490.64 172.078 1490.64 171.176C1490.64 170.271 1490.81 169.479 1491.15 168.801C1491.48 168.123 1491.96 167.597 1492.57 167.222C1493.18 166.847 1493.89 166.659 1494.71 166.659C1495.53 166.659 1496.24 166.847 1496.85 167.222C1497.46 167.597 1497.93 168.123 1498.27 168.801C1498.61 169.479 1498.78 170.271 1498.78 171.176C1498.78 172.078 1498.61 172.866 1498.27 173.54C1497.93 174.214 1497.46 174.739 1496.85 175.114C1496.24 175.489 1495.53 175.676 1494.71 175.676ZM1494.71 174.25C1495.24 174.25 1495.68 174.11 1496.03 173.83C1496.38 173.549 1496.64 173.176 1496.81 172.71C1496.98 172.244 1497.06 171.731 1497.06 171.17C1497.06 170.614 1496.98 170.102 1496.81 169.636C1496.64 169.167 1496.38 168.79 1496.03 168.506C1495.68 168.222 1495.24 168.08 1494.71 168.08C1494.18 168.08 1493.74 168.222 1493.38 168.506C1493.04 168.79 1492.78 169.167 1492.61 169.636C1492.44 170.102 1492.36 170.614 1492.36 171.17C1492.36 171.731 1492.44 172.244 1492.61 172.71C1492.78 173.176 1493.04 173.549 1493.38 173.83C1493.74 174.11 1494.18 174.25 1494.71 174.25ZM1502.37 163.864V175.5H1500.67V163.864H1502.37ZM1504.66 175.5V166.773H1506.36V175.5H1504.66ZM1505.52 165.426C1505.22 165.426 1504.97 165.328 1504.75 165.131C1504.55 164.93 1504.44 164.691 1504.44 164.415C1504.44 164.134 1504.55 163.896 1504.75 163.699C1504.97 163.498 1505.22 163.398 1505.52 163.398C1505.81 163.398 1506.06 163.498 1506.27 163.699C1506.48 163.896 1506.59 164.134 1506.59 164.415C1506.59 164.691 1506.48 164.93 1506.27 165.131C1506.06 165.328 1505.81 165.426 1505.52 165.426ZM1512.32 175.676C1511.47 175.676 1510.75 175.485 1510.14 175.102C1509.53 174.716 1509.06 174.184 1508.74 173.506C1508.41 172.828 1508.25 172.051 1508.25 171.176C1508.25 170.29 1508.42 169.508 1508.75 168.83C1509.08 168.148 1509.55 167.616 1510.16 167.233C1510.77 166.85 1511.48 166.659 1512.3 166.659C1512.96 166.659 1513.55 166.782 1514.07 167.028C1514.59 167.271 1515.01 167.612 1515.33 168.051C1515.65 168.491 1515.84 169.004 1515.9 169.591H1514.25C1514.16 169.182 1513.95 168.83 1513.62 168.534C1513.3 168.239 1512.87 168.091 1512.33 168.091C1511.86 168.091 1511.44 168.216 1511.09 168.466C1510.73 168.712 1510.46 169.064 1510.26 169.523C1510.06 169.977 1509.97 170.515 1509.97 171.136C1509.97 171.773 1510.06 172.322 1510.26 172.784C1510.45 173.246 1510.72 173.604 1511.07 173.858C1511.43 174.112 1511.85 174.239 1512.33 174.239C1512.65 174.239 1512.94 174.18 1513.2 174.062C1513.47 173.941 1513.69 173.769 1513.87 173.545C1514.05 173.322 1514.18 173.053 1514.25 172.739H1515.9C1515.84 173.303 1515.66 173.807 1515.35 174.25C1515.05 174.693 1514.63 175.042 1514.12 175.295C1513.61 175.549 1513.01 175.676 1512.32 175.676ZM1518.79 178.773C1518.54 178.773 1518.31 178.752 1518.1 178.71C1517.89 178.672 1517.74 178.631 1517.63 178.585L1518.04 177.193C1518.35 177.277 1518.63 177.313 1518.87 177.301C1519.12 177.29 1519.33 177.199 1519.52 177.028C1519.71 176.858 1519.87 176.58 1520.02 176.193L1520.23 175.614L1517.03 166.773H1518.85L1521.06 173.545H1521.15L1523.36 166.773H1525.19L1521.59 176.665C1521.42 177.119 1521.21 177.504 1520.95 177.818C1520.7 178.136 1520.39 178.375 1520.03 178.534C1519.68 178.693 1519.26 178.773 1518.79 178.773Z" fill="#F0F5FB"/>
<path d="M1579.75 121.5V109.864H1587.93V112.409H1582.91V114.409H1587.43V116.955H1582.91V121.5H1579.75ZM1592.7 121.659C1591.76 121.659 1590.95 121.472 1590.27 121.097C1589.6 120.718 1589.08 120.191 1588.72 119.517C1588.36 118.839 1588.18 118.053 1588.18 117.159C1588.18 116.265 1588.36 115.481 1588.72 114.807C1589.08 114.129 1589.6 113.602 1590.27 113.227C1590.95 112.848 1591.76 112.659 1592.7 112.659C1593.65 112.659 1594.46 112.848 1595.13 113.227C1595.81 113.602 1596.33 114.129 1596.69 114.807C1597.05 115.481 1597.23 116.265 1597.23 117.159C1597.23 118.053 1597.05 118.839 1596.69 119.517C1596.33 120.191 1595.81 120.718 1595.13 121.097C1594.46 121.472 1593.65 121.659 1592.7 121.659ZM1592.73 119.341C1592.99 119.341 1593.22 119.252 1593.41 119.074C1593.61 118.896 1593.76 118.642 1593.86 118.312C1593.97 117.983 1594.02 117.591 1594.02 117.136C1594.02 116.678 1593.97 116.286 1593.86 115.96C1593.76 115.631 1593.61 115.377 1593.41 115.199C1593.22 115.021 1592.99 114.932 1592.73 114.932C1592.45 114.932 1592.21 115.021 1592 115.199C1591.8 115.377 1591.65 115.631 1591.54 115.96C1591.44 116.286 1591.38 116.678 1591.38 117.136C1591.38 117.591 1591.44 117.983 1591.54 118.312C1591.65 118.642 1591.8 118.896 1592 119.074C1592.21 119.252 1592.45 119.341 1592.73 119.341ZM1601.63 109.864V121.5H1598.5V109.864H1601.63ZM1606.37 109.864V121.5H1603.23V109.864H1606.37ZM1612.17 121.659C1611.22 121.659 1610.41 121.472 1609.74 121.097C1609.07 120.718 1608.55 120.191 1608.19 119.517C1607.83 118.839 1607.65 118.053 1607.65 117.159C1607.65 116.265 1607.83 115.481 1608.19 114.807C1608.55 114.129 1609.07 113.602 1609.74 113.227C1610.41 112.848 1611.22 112.659 1612.17 112.659C1613.12 112.659 1613.93 112.848 1614.6 113.227C1615.28 113.602 1615.79 114.129 1616.15 114.807C1616.51 115.481 1616.69 116.265 1616.69 117.159C1616.69 118.053 1616.51 118.839 1616.15 119.517C1615.79 120.191 1615.28 120.718 1614.6 121.097C1613.93 121.472 1613.12 121.659 1612.17 121.659ZM1612.19 119.341C1612.46 119.341 1612.69 119.252 1612.88 119.074C1613.08 118.896 1613.22 118.642 1613.33 118.312C1613.44 117.983 1613.49 117.591 1613.49 117.136C1613.49 116.678 1613.44 116.286 1613.33 115.96C1613.22 115.631 1613.08 115.377 1612.88 115.199C1612.69 115.021 1612.46 114.932 1612.19 114.932C1611.91 114.932 1611.67 115.021 1611.47 115.199C1611.27 115.377 1611.12 115.631 1611.01 115.96C1610.91 116.286 1610.85 116.678 1610.85 117.136C1610.85 117.591 1610.91 117.983 1611.01 118.312C1611.12 118.642 1611.27 118.896 1611.47 119.074C1611.67 119.252 1611.91 119.341 1612.19 119.341ZM1619.36 121.5L1617.17 112.773H1620.31L1621.31 118.091H1621.38L1622.49 112.773H1625.54L1626.7 118.045H1626.77L1627.72 112.773H1630.86L1628.67 121.5H1625.29L1624.06 116.818H1623.97L1622.74 121.5H1619.36ZM1641.84 109.864H1645V117.318C1645 118.205 1644.79 118.972 1644.36 119.619C1643.94 120.263 1643.35 120.761 1642.6 121.114C1641.85 121.462 1640.97 121.636 1639.98 121.636C1638.97 121.636 1638.09 121.462 1637.34 121.114C1636.59 120.761 1636 120.263 1635.58 119.619C1635.16 118.972 1634.95 118.205 1634.95 117.318V109.864H1638.11V117.045C1638.11 117.405 1638.19 117.727 1638.35 118.011C1638.51 118.292 1638.73 118.511 1639.01 118.67C1639.29 118.83 1639.62 118.909 1639.98 118.909C1640.34 118.909 1640.66 118.83 1640.94 118.67C1641.22 118.511 1641.44 118.292 1641.6 118.011C1641.76 117.727 1641.84 117.405 1641.84 117.045V109.864ZM1654.52 115.614H1651.64C1651.62 115.436 1651.56 115.282 1651.45 115.153C1651.34 115.025 1651.2 114.926 1651.02 114.858C1650.85 114.786 1650.66 114.75 1650.45 114.75C1650.19 114.75 1649.95 114.799 1649.76 114.898C1649.57 114.996 1649.47 115.136 1649.48 115.318C1649.47 115.447 1649.53 115.566 1649.64 115.676C1649.76 115.786 1649.98 115.871 1650.32 115.932L1652.09 116.25C1652.98 116.413 1653.65 116.687 1654.09 117.074C1654.52 117.456 1654.75 117.97 1654.75 118.614C1654.75 119.235 1654.56 119.775 1654.19 120.233C1653.83 120.687 1653.33 121.04 1652.7 121.29C1652.07 121.536 1651.35 121.659 1650.55 121.659C1649.21 121.659 1648.17 121.386 1647.41 120.841C1646.66 120.295 1646.25 119.576 1646.16 118.682H1649.27C1649.31 118.958 1649.45 119.172 1649.68 119.324C1649.92 119.472 1650.21 119.545 1650.57 119.545C1650.86 119.545 1651.09 119.496 1651.28 119.398C1651.47 119.299 1651.56 119.159 1651.57 118.977C1651.56 118.811 1651.48 118.678 1651.32 118.58C1651.16 118.481 1650.91 118.402 1650.57 118.341L1649.02 118.068C1648.13 117.913 1647.47 117.617 1647.02 117.182C1646.58 116.746 1646.36 116.186 1646.36 115.5C1646.36 114.894 1646.52 114.381 1646.84 113.96C1647.17 113.536 1647.63 113.214 1648.23 112.994C1648.84 112.771 1649.56 112.659 1650.39 112.659C1651.65 112.659 1652.64 112.92 1653.37 113.443C1654.1 113.966 1654.48 114.689 1654.52 115.614Z" fill="#F0F5FB"/>
<path d="M1584.05 153.5H1580.28V141.864H1584.16C1585.3 141.864 1586.28 142.097 1587.1 142.562C1587.92 143.025 1588.55 143.689 1588.98 144.557C1589.42 145.42 1589.64 146.456 1589.64 147.665C1589.64 148.877 1589.42 149.919 1588.98 150.79C1588.54 151.661 1587.9 152.331 1587.07 152.801C1586.23 153.267 1585.23 153.5 1584.05 153.5ZM1582.03 151.966H1583.95C1584.84 151.966 1585.57 151.799 1586.16 151.466C1586.75 151.129 1587.19 150.642 1587.48 150.006C1587.77 149.366 1587.91 148.585 1587.91 147.665C1587.91 146.752 1587.77 145.977 1587.48 145.341C1587.19 144.705 1586.76 144.222 1586.19 143.892C1585.62 143.562 1584.91 143.398 1584.06 143.398H1582.03V151.966ZM1591.69 153.5V144.773H1593.39V153.5H1591.69ZM1592.55 143.426C1592.25 143.426 1592 143.328 1591.79 143.131C1591.58 142.93 1591.47 142.691 1591.47 142.415C1591.47 142.134 1591.58 141.896 1591.79 141.699C1592 141.498 1592.25 141.398 1592.55 141.398C1592.84 141.398 1593.09 141.498 1593.3 141.699C1593.51 141.896 1593.62 142.134 1593.62 142.415C1593.62 142.691 1593.51 142.93 1593.3 143.131C1593.09 143.328 1592.84 143.426 1592.55 143.426ZM1602.21 146.903L1600.67 147.176C1600.61 146.979 1600.51 146.792 1600.37 146.614C1600.23 146.436 1600.04 146.29 1599.81 146.176C1599.57 146.062 1599.28 146.006 1598.93 146.006C1598.45 146.006 1598.05 146.114 1597.72 146.33C1597.4 146.542 1597.24 146.816 1597.24 147.153C1597.24 147.445 1597.35 147.68 1597.57 147.858C1597.78 148.036 1598.13 148.182 1598.61 148.295L1600 148.614C1600.8 148.799 1601.4 149.085 1601.79 149.472C1602.19 149.858 1602.38 150.36 1602.38 150.977C1602.38 151.5 1602.23 151.966 1601.93 152.375C1601.63 152.78 1601.21 153.098 1600.67 153.33C1600.14 153.561 1599.52 153.676 1598.82 153.676C1597.84 153.676 1597.04 153.468 1596.42 153.051C1595.81 152.631 1595.43 152.034 1595.29 151.261L1596.93 151.011C1597.03 151.439 1597.24 151.763 1597.56 151.983C1597.88 152.199 1598.29 152.307 1598.8 152.307C1599.36 152.307 1599.81 152.191 1600.14 151.96C1600.47 151.725 1600.64 151.439 1600.64 151.102C1600.64 150.83 1600.54 150.6 1600.33 150.415C1600.13 150.229 1599.82 150.089 1599.41 149.994L1597.93 149.67C1597.11 149.485 1596.51 149.189 1596.12 148.784C1595.74 148.379 1595.54 147.866 1595.54 147.244C1595.54 146.729 1595.69 146.278 1595.97 145.892C1596.26 145.506 1596.66 145.205 1597.17 144.989C1597.68 144.769 1598.26 144.659 1598.91 144.659C1599.86 144.659 1600.6 144.864 1601.14 145.273C1601.68 145.678 1602.04 146.222 1602.21 146.903ZM1607.93 153.676C1607.08 153.676 1606.36 153.485 1605.75 153.102C1605.14 152.716 1604.67 152.184 1604.35 151.506C1604.02 150.828 1603.86 150.051 1603.86 149.176C1603.86 148.29 1604.03 147.508 1604.36 146.83C1604.69 146.148 1605.16 145.616 1605.77 145.233C1606.37 144.85 1607.09 144.659 1607.91 144.659C1608.57 144.659 1609.16 144.782 1609.68 145.028C1610.2 145.271 1610.62 145.612 1610.94 146.051C1611.26 146.491 1611.45 147.004 1611.51 147.591H1609.86C1609.77 147.182 1609.56 146.83 1609.23 146.534C1608.91 146.239 1608.48 146.091 1607.94 146.091C1607.47 146.091 1607.05 146.216 1606.69 146.466C1606.34 146.712 1606.07 147.064 1605.87 147.523C1605.67 147.977 1605.58 148.515 1605.58 149.136C1605.58 149.773 1605.67 150.322 1605.87 150.784C1606.06 151.246 1606.33 151.604 1606.68 151.858C1607.04 152.112 1607.46 152.239 1607.94 152.239C1608.26 152.239 1608.55 152.18 1608.81 152.062C1609.08 151.941 1609.3 151.769 1609.48 151.545C1609.66 151.322 1609.79 151.053 1609.86 150.739H1611.51C1611.45 151.303 1611.27 151.807 1610.96 152.25C1610.65 152.693 1610.24 153.042 1609.73 153.295C1609.22 153.549 1608.62 153.676 1607.93 153.676ZM1617.01 153.676C1616.19 153.676 1615.47 153.489 1614.86 153.114C1614.25 152.739 1613.78 152.214 1613.44 151.54C1613.11 150.866 1612.94 150.078 1612.94 149.176C1612.94 148.271 1613.11 147.479 1613.44 146.801C1613.78 146.123 1614.25 145.597 1614.86 145.222C1615.47 144.847 1616.19 144.659 1617.01 144.659C1617.82 144.659 1618.54 144.847 1619.15 145.222C1619.76 145.597 1620.23 146.123 1620.57 146.801C1620.91 147.479 1621.07 148.271 1621.07 149.176C1621.07 150.078 1620.91 150.866 1620.57 151.54C1620.23 152.214 1619.76 152.739 1619.15 153.114C1618.54 153.489 1617.82 153.676 1617.01 153.676ZM1617.01 152.25C1617.54 152.25 1617.98 152.11 1618.33 151.83C1618.68 151.549 1618.94 151.176 1619.1 150.71C1619.27 150.244 1619.36 149.731 1619.36 149.17C1619.36 148.614 1619.27 148.102 1619.1 147.636C1618.94 147.167 1618.68 146.79 1618.33 146.506C1617.98 146.222 1617.54 146.08 1617.01 146.08C1616.48 146.08 1616.03 146.222 1615.68 146.506C1615.33 146.79 1615.07 147.167 1614.9 147.636C1614.74 148.102 1614.65 148.614 1614.65 149.17C1614.65 149.731 1614.74 150.244 1614.9 150.71C1615.07 151.176 1615.33 151.549 1615.68 151.83C1616.03 152.11 1616.48 152.25 1617.01 152.25ZM1622.97 153.5V144.773H1624.61V146.159H1624.7C1624.86 145.689 1625.14 145.32 1625.54 145.051C1625.95 144.778 1626.41 144.642 1626.92 144.642C1627.03 144.642 1627.15 144.646 1627.29 144.653C1627.44 144.661 1627.56 144.67 1627.64 144.682V146.307C1627.57 146.288 1627.45 146.267 1627.28 146.244C1627.1 146.218 1626.93 146.205 1626.75 146.205C1626.35 146.205 1625.99 146.29 1625.68 146.46C1625.37 146.627 1625.12 146.86 1624.94 147.159C1624.76 147.455 1624.67 147.792 1624.67 148.17V153.5H1622.97ZM1632.07 153.67C1631.36 153.67 1630.73 153.491 1630.18 153.131C1629.63 152.767 1629.2 152.25 1628.88 151.58C1628.57 150.905 1628.42 150.097 1628.42 149.153C1628.42 148.21 1628.57 147.403 1628.89 146.733C1629.21 146.062 1629.64 145.549 1630.2 145.193C1630.75 144.837 1631.38 144.659 1632.08 144.659C1632.62 144.659 1633.05 144.75 1633.38 144.932C1633.72 145.11 1633.97 145.318 1634.16 145.557C1634.34 145.795 1634.49 146.006 1634.59 146.188H1634.69V141.864H1636.39V153.5H1634.73V152.142H1634.59C1634.49 152.328 1634.34 152.54 1634.14 152.778C1633.96 153.017 1633.69 153.225 1633.36 153.403C1633.03 153.581 1632.6 153.67 1632.07 153.67ZM1632.44 152.222C1632.93 152.222 1633.34 152.093 1633.68 151.835C1634.02 151.574 1634.28 151.212 1634.45 150.75C1634.63 150.288 1634.72 149.75 1634.72 149.136C1634.72 148.53 1634.63 148 1634.46 147.545C1634.28 147.091 1634.03 146.737 1633.69 146.483C1633.35 146.229 1632.94 146.102 1632.44 146.102C1631.93 146.102 1631.5 146.235 1631.16 146.5C1630.82 146.765 1630.56 147.127 1630.39 147.585C1630.22 148.044 1630.13 148.561 1630.13 149.136C1630.13 149.72 1630.22 150.244 1630.39 150.71C1630.57 151.176 1630.83 151.545 1631.17 151.818C1631.51 152.087 1631.94 152.222 1632.44 152.222Z" fill="#F0F5FB"/>
<path d="M1579.7 165.375V163.864H1588.71V165.375H1585.08V175.5H1583.33V165.375H1579.7ZM1591.46 175.5L1588.89 166.773H1590.64L1592.35 173.182H1592.44L1594.15 166.773H1595.91L1597.62 173.153H1597.7L1599.4 166.773H1601.15L1598.59 175.5H1596.86L1595.09 169.199H1594.96L1593.18 175.5H1591.46ZM1602.77 175.5V166.773H1604.47V175.5H1602.77ZM1603.62 165.426C1603.33 165.426 1603.08 165.328 1602.86 165.131C1602.66 164.93 1602.55 164.691 1602.55 164.415C1602.55 164.134 1602.66 163.896 1602.86 163.699C1603.08 163.498 1603.33 163.398 1603.62 163.398C1603.92 163.398 1604.17 163.498 1604.38 163.699C1604.59 163.896 1604.7 164.134 1604.7 164.415C1604.7 164.691 1604.59 164.93 1604.38 165.131C1604.17 165.328 1603.92 165.426 1603.62 165.426ZM1610.83 166.773V168.136H1606.06V166.773H1610.83ZM1607.34 164.682H1609.04V172.938C1609.04 173.267 1609.08 173.515 1609.18 173.682C1609.28 173.845 1609.41 173.956 1609.56 174.017C1609.72 174.074 1609.9 174.102 1610.08 174.102C1610.22 174.102 1610.34 174.093 1610.44 174.074C1610.54 174.055 1610.62 174.04 1610.68 174.028L1610.98 175.432C1610.89 175.47 1610.75 175.508 1610.56 175.545C1610.38 175.587 1610.15 175.61 1609.88 175.614C1609.44 175.621 1609.02 175.542 1608.63 175.375C1608.25 175.208 1607.93 174.951 1607.69 174.602C1607.46 174.254 1607.34 173.816 1607.34 173.29V164.682ZM1616.78 166.773V168.136H1612.01V166.773H1616.78ZM1613.29 164.682H1614.99V172.938C1614.99 173.267 1615.04 173.515 1615.14 173.682C1615.23 173.845 1615.36 173.956 1615.52 174.017C1615.68 174.074 1615.85 174.102 1616.03 174.102C1616.17 174.102 1616.29 174.093 1616.39 174.074C1616.49 174.055 1616.57 174.04 1616.63 174.028L1616.94 175.432C1616.84 175.47 1616.7 175.508 1616.52 175.545C1616.34 175.587 1616.11 175.61 1615.84 175.614C1615.39 175.621 1614.97 175.542 1614.59 175.375C1614.2 175.208 1613.89 174.951 1613.65 174.602C1613.41 174.254 1613.29 173.816 1613.29 173.29V164.682ZM1622.33 175.676C1621.47 175.676 1620.72 175.492 1620.1 175.125C1619.49 174.754 1619.01 174.233 1618.67 173.562C1618.34 172.888 1618.17 172.098 1618.17 171.193C1618.17 170.299 1618.34 169.511 1618.67 168.83C1619.01 168.148 1619.48 167.616 1620.08 167.233C1620.69 166.85 1621.4 166.659 1622.21 166.659C1622.7 166.659 1623.18 166.741 1623.64 166.903C1624.1 167.066 1624.51 167.322 1624.88 167.67C1625.25 168.019 1625.54 168.472 1625.75 169.028C1625.96 169.581 1626.07 170.254 1626.07 171.045V171.648H1619.13V170.375H1624.4C1624.4 169.928 1624.31 169.532 1624.13 169.188C1623.95 168.839 1623.69 168.564 1623.37 168.364C1623.04 168.163 1622.66 168.062 1622.22 168.062C1621.74 168.062 1621.32 168.18 1620.97 168.415C1620.62 168.646 1620.34 168.949 1620.15 169.324C1619.96 169.695 1619.87 170.098 1619.87 170.534V171.528C1619.87 172.112 1619.97 172.608 1620.17 173.017C1620.38 173.426 1620.67 173.739 1621.04 173.955C1621.41 174.167 1621.85 174.273 1622.34 174.273C1622.66 174.273 1622.96 174.227 1623.22 174.136C1623.49 174.042 1623.72 173.902 1623.91 173.716C1624.1 173.53 1624.25 173.301 1624.35 173.028L1625.96 173.318C1625.83 173.792 1625.6 174.206 1625.27 174.562C1624.94 174.915 1624.52 175.189 1624.02 175.386C1623.53 175.58 1622.96 175.676 1622.33 175.676ZM1627.95 175.5V166.773H1629.6V168.159H1629.69C1629.85 167.689 1630.13 167.32 1630.53 167.051C1630.93 166.778 1631.39 166.642 1631.9 166.642C1632.01 166.642 1632.13 166.646 1632.28 166.653C1632.43 166.661 1632.54 166.67 1632.62 166.682V168.307C1632.56 168.288 1632.44 168.267 1632.26 168.244C1632.09 168.218 1631.91 168.205 1631.74 168.205C1631.34 168.205 1630.98 168.29 1630.66 168.46C1630.35 168.627 1630.11 168.86 1629.93 169.159C1629.74 169.455 1629.65 169.792 1629.65 170.17V175.5H1627.95Z" fill="#F0F5FB"/>
<path d="M1580.28 185.864H1582.41L1586.11 194.909H1586.25L1589.95 185.864H1592.09V197.5H1590.41V189.08H1590.31L1586.88 197.483H1585.49L1582.06 189.074H1581.95V197.5H1580.28V185.864ZM1598.26 197.676C1597.4 197.676 1596.66 197.492 1596.04 197.125C1595.42 196.754 1594.95 196.233 1594.61 195.562C1594.28 194.888 1594.11 194.098 1594.11 193.193C1594.11 192.299 1594.28 191.511 1594.61 190.83C1594.95 190.148 1595.42 189.616 1596.02 189.233C1596.62 188.85 1597.33 188.659 1598.14 188.659C1598.64 188.659 1599.11 188.741 1599.58 188.903C1600.04 189.066 1600.45 189.322 1600.82 189.67C1601.19 190.019 1601.48 190.472 1601.69 191.028C1601.9 191.581 1602.01 192.254 1602.01 193.045V193.648H1595.07V192.375H1600.34C1600.34 191.928 1600.25 191.532 1600.07 191.188C1599.89 190.839 1599.63 190.564 1599.3 190.364C1598.98 190.163 1598.59 190.062 1598.15 190.062C1597.68 190.062 1597.26 190.18 1596.9 190.415C1596.55 190.646 1596.28 190.949 1596.09 191.324C1595.9 191.695 1595.8 192.098 1595.8 192.534V193.528C1595.8 194.112 1595.9 194.608 1596.11 195.017C1596.32 195.426 1596.61 195.739 1596.98 195.955C1597.35 196.167 1597.78 196.273 1598.28 196.273C1598.6 196.273 1598.9 196.227 1599.16 196.136C1599.43 196.042 1599.65 195.902 1599.85 195.716C1600.04 195.53 1600.19 195.301 1600.29 195.028L1601.9 195.318C1601.77 195.792 1601.54 196.206 1601.21 196.562C1600.88 196.915 1600.46 197.189 1599.96 197.386C1599.47 197.58 1598.9 197.676 1598.26 197.676ZM1607.16 197.67C1606.45 197.67 1605.83 197.491 1605.27 197.131C1604.72 196.767 1604.29 196.25 1603.98 195.58C1603.67 194.905 1603.51 194.097 1603.51 193.153C1603.51 192.21 1603.67 191.403 1603.98 190.733C1604.3 190.062 1604.74 189.549 1605.29 189.193C1605.84 188.837 1606.47 188.659 1607.17 188.659C1607.71 188.659 1608.15 188.75 1608.48 188.932C1608.81 189.11 1609.07 189.318 1609.25 189.557C1609.44 189.795 1609.58 190.006 1609.68 190.188H1609.78V185.864H1611.48V197.5H1609.82V196.142H1609.68C1609.58 196.328 1609.43 196.54 1609.24 196.778C1609.05 197.017 1608.79 197.225 1608.45 197.403C1608.12 197.581 1607.69 197.67 1607.16 197.67ZM1607.53 196.222C1608.02 196.222 1608.44 196.093 1608.77 195.835C1609.11 195.574 1609.37 195.212 1609.55 194.75C1609.72 194.288 1609.81 193.75 1609.81 193.136C1609.81 192.53 1609.73 192 1609.55 191.545C1609.38 191.091 1609.12 190.737 1608.78 190.483C1608.45 190.229 1608.03 190.102 1607.53 190.102C1607.02 190.102 1606.6 190.235 1606.26 190.5C1605.91 190.765 1605.66 191.127 1605.48 191.585C1605.31 192.044 1605.23 192.561 1605.23 193.136C1605.23 193.72 1605.31 194.244 1605.49 194.71C1605.66 195.176 1605.92 195.545 1606.26 195.818C1606.61 196.087 1607.03 196.222 1607.53 196.222ZM1613.91 197.5V188.773H1615.61V197.5H1613.91ZM1614.77 187.426C1614.47 187.426 1614.22 187.328 1614 187.131C1613.8 186.93 1613.69 186.691 1613.69 186.415C1613.69 186.134 1613.8 185.896 1614 185.699C1614.22 185.498 1614.47 185.398 1614.77 185.398C1615.06 185.398 1615.31 185.498 1615.52 185.699C1615.73 185.896 1615.84 186.134 1615.84 186.415C1615.84 186.691 1615.73 186.93 1615.52 187.131C1615.31 187.328 1615.06 187.426 1614.77 187.426ZM1623.42 193.881V188.773H1625.12V197.5H1623.45V195.989H1623.36C1623.16 196.455 1622.84 196.843 1622.4 197.153C1621.96 197.46 1621.41 197.614 1620.76 197.614C1620.2 197.614 1619.7 197.491 1619.27 197.244C1618.84 196.994 1618.5 196.625 1618.26 196.136C1618.01 195.648 1617.89 195.044 1617.89 194.324V188.773H1619.59V194.119C1619.59 194.714 1619.76 195.187 1620.09 195.54C1620.41 195.892 1620.84 196.068 1621.37 196.068C1621.69 196.068 1622 195.989 1622.32 195.83C1622.64 195.67 1622.9 195.43 1623.11 195.108C1623.32 194.786 1623.42 194.377 1623.42 193.881ZM1627.41 197.5V188.773H1629.04V190.193H1629.15C1629.33 189.712 1629.63 189.337 1630.04 189.068C1630.45 188.795 1630.95 188.659 1631.52 188.659C1632.1 188.659 1632.59 188.795 1632.99 189.068C1633.38 189.341 1633.68 189.716 1633.87 190.193H1633.96C1634.17 189.727 1634.5 189.356 1634.95 189.08C1635.41 188.799 1635.95 188.659 1636.58 188.659C1637.37 188.659 1638.02 188.907 1638.52 189.403C1639.02 189.9 1639.27 190.648 1639.27 191.648V197.5H1637.57V191.807C1637.57 191.216 1637.41 190.788 1637.09 190.523C1636.77 190.258 1636.38 190.125 1635.94 190.125C1635.38 190.125 1634.95 190.295 1634.65 190.636C1634.34 190.973 1634.19 191.407 1634.19 191.938V197.5H1632.49V191.699C1632.49 191.225 1632.35 190.845 1632.05 190.557C1631.75 190.269 1631.37 190.125 1630.9 190.125C1630.57 190.125 1630.28 190.21 1630 190.381C1629.74 190.547 1629.52 190.78 1629.35 191.08C1629.19 191.379 1629.11 191.725 1629.11 192.119V197.5H1627.41Z" fill="#F0F5FB"/>
</svg>
