<svg width="1944" height="173" viewBox="0 0 1944 173" fill="none" xmlns="http://www.w3.org/2000/svg">
<g filter="url(#filter0_d_112_2652)">
<rect width="1920" height="149" transform="translate(10 8)" fill="#FFFEF9"/>
<path d="M35.248 43.576H40.624C41.712 43.576 42.56 43.8427 43.168 44.376C43.7867 44.9093 44.096 45.64 44.096 46.568C44.096 47.2613 43.936 47.8693 43.616 48.392C43.3067 48.9147 42.8053 49.272 42.112 49.464V49.496C42.4427 49.56 42.7093 49.6667 42.912 49.816C43.1253 49.9653 43.2907 50.1467 43.408 50.36C43.536 50.5627 43.6267 50.792 43.68 51.048C43.744 51.304 43.792 51.5707 43.824 51.848C43.8453 52.1253 43.8613 52.408 43.872 52.696C43.8827 52.984 43.9093 53.2667 43.952 53.544C43.9947 53.8213 44.0533 54.088 44.128 54.344C44.2133 54.5893 44.336 54.808 44.496 55H42.8C42.6933 54.8827 42.6187 54.7227 42.576 54.52C42.544 54.3173 42.5227 54.0933 42.512 53.848C42.5013 53.592 42.4907 53.32 42.48 53.032C42.4693 52.744 42.4373 52.4613 42.384 52.184C42.3413 51.9067 42.288 51.6453 42.224 51.4C42.16 51.144 42.0587 50.9253 41.92 50.744C41.7813 50.552 41.6 50.4027 41.376 50.296C41.152 50.1787 40.8533 50.12 40.48 50.12H36.768V55H35.248V43.576ZM39.936 48.84C40.288 48.84 40.624 48.8133 40.944 48.76C41.264 48.7067 41.5413 48.6053 41.776 48.456C42.0213 48.296 42.2133 48.088 42.352 47.832C42.5013 47.5653 42.576 47.224 42.576 46.808C42.576 46.232 42.416 45.7627 42.096 45.4C41.776 45.0373 41.2587 44.856 40.544 44.856H36.768V48.84H39.936ZM51.7211 50.072C51.6998 49.752 51.6251 49.448 51.4971 49.16C51.3798 48.872 51.2145 48.6267 51.0011 48.424C50.7985 48.2107 50.5531 48.0453 50.2651 47.928C49.9878 47.8 49.6785 47.736 49.3371 47.736C48.9851 47.736 48.6651 47.8 48.3771 47.928C48.0998 48.0453 47.8598 48.2107 47.6571 48.424C47.4545 48.6373 47.2945 48.888 47.1771 49.176C47.0598 49.4533 46.9905 49.752 46.9691 50.072H51.7211ZM53.0331 52.376C52.8518 53.304 52.4518 54.0027 51.8331 54.472C51.2145 54.9413 50.4358 55.176 49.4971 55.176C48.8358 55.176 48.2598 55.0693 47.7691 54.856C47.2891 54.6427 46.8838 54.344 46.5531 53.96C46.2225 53.576 45.9718 53.1173 45.8011 52.584C45.6411 52.0507 45.5505 51.4693 45.5291 50.84C45.5291 50.2107 45.6251 49.6347 45.8171 49.112C46.0091 48.5893 46.2758 48.136 46.6171 47.752C46.9691 47.368 47.3798 47.0693 47.8491 46.856C48.3291 46.6427 48.8518 46.536 49.4171 46.536C50.1531 46.536 50.7611 46.6907 51.2411 47C51.7318 47.2987 52.1211 47.6827 52.4091 48.152C52.7078 48.6213 52.9105 49.1333 53.0171 49.688C53.1345 50.2427 53.1825 50.7707 53.1611 51.272H46.9691C46.9585 51.6347 47.0011 51.9813 47.0971 52.312C47.1931 52.632 47.3478 52.92 47.5611 53.176C47.7745 53.4213 48.0465 53.6187 48.3771 53.768C48.7078 53.9173 49.0971 53.992 49.5451 53.992C50.1211 53.992 50.5905 53.8587 50.9531 53.592C51.3265 53.3253 51.5718 52.92 51.6891 52.376H53.0331ZM56.4589 46.728H58.1069V47.928H56.4589V53.064C56.4589 53.224 56.4695 53.352 56.4909 53.448C56.5229 53.544 56.5762 53.6187 56.6509 53.672C56.7255 53.7253 56.8269 53.7627 56.9549 53.784C57.0935 53.7947 57.2695 53.8 57.4829 53.8H58.1069V55H57.0669C56.7149 55 56.4109 54.9787 56.1549 54.936C55.9095 54.8827 55.7069 54.792 55.5469 54.664C55.3975 54.536 55.2855 54.3547 55.2109 54.12C55.1362 53.8853 55.0989 53.576 55.0989 53.192V47.928H53.6909V46.728H55.0989V44.248H56.4589V46.728ZM66.4658 55H65.1858V53.688H65.1538C64.8658 54.2 64.4978 54.5787 64.0498 54.824C63.6018 55.0587 63.0738 55.176 62.4658 55.176C61.9218 55.176 61.4684 55.1067 61.1058 54.968C60.7431 54.8187 60.4498 54.6107 60.2258 54.344C60.0018 54.0773 59.8418 53.7627 59.7458 53.4C59.6604 53.0267 59.6178 52.616 59.6178 52.168V46.728H60.9778V52.328C60.9778 52.84 61.1271 53.2453 61.4258 53.544C61.7244 53.8427 62.1351 53.992 62.6578 53.992C63.0738 53.992 63.4311 53.928 63.7298 53.8C64.0391 53.672 64.2951 53.4907 64.4978 53.256C64.7004 53.0213 64.8498 52.7493 64.9458 52.44C65.0524 52.12 65.1058 51.7733 65.1058 51.4V46.728H66.4658V55ZM68.4604 46.728H69.7404V48.472H69.7724C70.103 47.8 70.5084 47.304 70.9884 46.984C71.4684 46.664 72.0764 46.5147 72.8124 46.536V47.976C72.2684 47.976 71.8044 48.0507 71.4204 48.2C71.0364 48.3493 70.727 48.568 70.4924 48.856C70.2577 49.144 70.087 49.496 69.9804 49.912C69.8737 50.3173 69.8204 50.7867 69.8204 51.32V55H68.4604V46.728ZM74.1178 46.728H75.3978V48.04H75.4298C75.9951 47.0373 76.8911 46.536 78.1178 46.536C78.6618 46.536 79.1151 46.6107 79.4778 46.76C79.8404 46.9093 80.1338 47.1173 80.3578 47.384C80.5818 47.6507 80.7364 47.9707 80.8218 48.344C80.9178 48.7067 80.9658 49.112 80.9658 49.56V55H79.6058V49.4C79.6058 48.888 79.4564 48.4827 79.1578 48.184C78.8591 47.8853 78.4484 47.736 77.9258 47.736C77.5098 47.736 77.1471 47.8 76.8378 47.928C76.5391 48.056 76.2884 48.2373 76.0858 48.472C75.8831 48.7067 75.7284 48.984 75.6218 49.304C75.5258 49.6133 75.4778 49.9547 75.4778 50.328V55H74.1178V46.728ZM89.3495 46.728H90.9975V47.928H89.3495V53.064C89.3495 53.224 89.3602 53.352 89.3815 53.448C89.4135 53.544 89.4668 53.6187 89.5415 53.672C89.6162 53.7253 89.7175 53.7627 89.8455 53.784C89.9842 53.7947 90.1602 53.8 90.3735 53.8H90.9975V55H89.9575C89.6055 55 89.3015 54.9787 89.0455 54.936C88.8002 54.8827 88.5975 54.792 88.4375 54.664C88.2882 54.536 88.1762 54.3547 88.1015 54.12C88.0268 53.8853 87.9895 53.576 87.9895 53.192V47.928H86.5815V46.728H87.9895V44.248H89.3495V46.728ZM93.5004 50.872C93.5004 51.3733 93.5644 51.8213 93.6924 52.216C93.831 52.6 94.0177 52.9253 94.2524 53.192C94.487 53.448 94.759 53.6453 95.0684 53.784C95.3884 53.9227 95.7244 53.992 96.0764 53.992C96.4284 53.992 96.759 53.9227 97.0684 53.784C97.3884 53.6453 97.6657 53.448 97.9004 53.192C98.135 52.9253 98.3164 52.6 98.4444 52.216C98.583 51.8213 98.6524 51.3733 98.6524 50.872C98.6524 50.3707 98.583 49.928 98.4444 49.544C98.3164 49.1493 98.135 48.8187 97.9004 48.552C97.6657 48.2853 97.3884 48.0827 97.0684 47.944C96.759 47.8053 96.4284 47.736 96.0764 47.736C95.7244 47.736 95.3884 47.8053 95.0684 47.944C94.759 48.0827 94.487 48.2853 94.2524 48.552C94.0177 48.8187 93.831 49.1493 93.6924 49.544C93.5644 49.928 93.5004 50.3707 93.5004 50.872ZM92.0604 50.872C92.0604 50.264 92.1457 49.6987 92.3164 49.176C92.487 48.6427 92.743 48.184 93.0844 47.8C93.4257 47.4053 93.847 47.096 94.3484 46.872C94.8497 46.648 95.4257 46.536 96.0764 46.536C96.7377 46.536 97.3137 46.648 97.8044 46.872C98.3057 47.096 98.727 47.4053 99.0684 47.8C99.4097 48.184 99.6657 48.6427 99.8364 49.176C100.007 49.6987 100.092 50.264 100.092 50.872C100.092 51.48 100.007 52.0453 99.8364 52.568C99.6657 53.0907 99.4097 53.5493 99.0684 53.944C98.727 54.328 98.3057 54.632 97.8044 54.856C97.3137 55.0693 96.7377 55.176 96.0764 55.176C95.4257 55.176 94.8497 55.0693 94.3484 54.856C93.847 54.632 93.4257 54.328 93.0844 53.944C92.743 53.5493 92.487 53.0907 92.3164 52.568C92.1457 52.0453 92.0604 51.48 92.0604 50.872ZM106.149 46.728H107.429V47.944H107.461C108.08 47.0053 108.97 46.536 110.133 46.536C110.645 46.536 111.109 46.6427 111.525 46.856C111.941 47.0693 112.234 47.432 112.405 47.944C112.682 47.496 113.045 47.1493 113.493 46.904C113.952 46.6587 114.453 46.536 114.997 46.536C115.413 46.536 115.786 46.584 116.117 46.68C116.458 46.7653 116.746 46.904 116.981 47.096C117.226 47.288 117.413 47.5387 117.541 47.848C117.68 48.1467 117.749 48.5093 117.749 48.936V55H116.389V49.576C116.389 49.32 116.368 49.08 116.325 48.856C116.282 48.632 116.202 48.44 116.085 48.28C115.968 48.1093 115.802 47.976 115.589 47.88C115.386 47.784 115.12 47.736 114.789 47.736C114.117 47.736 113.589 47.928 113.205 48.312C112.821 48.696 112.629 49.208 112.629 49.848V55H111.269V49.576C111.269 49.3093 111.242 49.064 111.189 48.84C111.146 48.616 111.066 48.424 110.949 48.264C110.832 48.0933 110.672 47.9653 110.469 47.88C110.277 47.784 110.026 47.736 109.717 47.736C109.322 47.736 108.981 47.816 108.693 47.976C108.416 48.136 108.186 48.328 108.005 48.552C107.834 48.776 107.706 49.0107 107.621 49.256C107.546 49.4907 107.509 49.688 107.509 49.848V55H106.149V46.728ZM120.782 50.872C120.782 51.3733 120.846 51.8213 120.974 52.216C121.112 52.6 121.299 52.9253 121.534 53.192C121.768 53.448 122.04 53.6453 122.35 53.784C122.67 53.9227 123.006 53.992 123.358 53.992C123.71 53.992 124.04 53.9227 124.35 53.784C124.67 53.6453 124.947 53.448 125.182 53.192C125.416 52.9253 125.598 52.6 125.726 52.216C125.864 51.8213 125.934 51.3733 125.934 50.872C125.934 50.3707 125.864 49.928 125.726 49.544C125.598 49.1493 125.416 48.8187 125.182 48.552C124.947 48.2853 124.67 48.0827 124.35 47.944C124.04 47.8053 123.71 47.736 123.358 47.736C123.006 47.736 122.67 47.8053 122.35 47.944C122.04 48.0827 121.768 48.2853 121.534 48.552C121.299 48.8187 121.112 49.1493 120.974 49.544C120.846 49.928 120.782 50.3707 120.782 50.872ZM119.342 50.872C119.342 50.264 119.427 49.6987 119.598 49.176C119.768 48.6427 120.024 48.184 120.366 47.8C120.707 47.4053 121.128 47.096 121.63 46.872C122.131 46.648 122.707 46.536 123.358 46.536C124.019 46.536 124.595 46.648 125.086 46.872C125.587 47.096 126.008 47.4053 126.35 47.8C126.691 48.184 126.947 48.6427 127.118 49.176C127.288 49.6987 127.374 50.264 127.374 50.872C127.374 51.48 127.288 52.0453 127.118 52.568C126.947 53.0907 126.691 53.5493 126.35 53.944C126.008 54.328 125.587 54.632 125.086 54.856C124.595 55.0693 124.019 55.176 123.358 55.176C122.707 55.176 122.131 55.0693 121.63 54.856C121.128 54.632 120.707 54.328 120.366 53.944C120.024 53.5493 119.768 53.0907 119.598 52.568C119.427 52.0453 119.342 51.48 119.342 50.872ZM129.809 52.392C129.82 52.6907 129.889 52.9467 130.017 53.16C130.145 53.3627 130.31 53.528 130.513 53.656C130.726 53.7733 130.961 53.8587 131.217 53.912C131.484 53.9653 131.756 53.992 132.033 53.992C132.246 53.992 132.47 53.976 132.705 53.944C132.94 53.912 133.153 53.8533 133.345 53.768C133.548 53.6827 133.713 53.56 133.841 53.4C133.969 53.2293 134.033 53.016 134.033 52.76C134.033 52.408 133.9 52.1413 133.633 51.96C133.366 51.7787 133.03 51.6347 132.625 51.528C132.23 51.4107 131.798 51.3093 131.329 51.224C130.86 51.128 130.422 51 130.017 50.84C129.622 50.6693 129.292 50.4347 129.025 50.136C128.758 49.8373 128.625 49.4213 128.625 48.888C128.625 48.472 128.716 48.1147 128.897 47.816C129.089 47.5173 129.329 47.2773 129.617 47.096C129.916 46.904 130.246 46.7653 130.609 46.68C130.982 46.584 131.35 46.536 131.713 46.536C132.182 46.536 132.614 46.5787 133.009 46.664C133.404 46.7387 133.75 46.8773 134.049 47.08C134.358 47.272 134.604 47.5387 134.785 47.88C134.966 48.2107 135.073 48.6267 135.105 49.128H133.745C133.724 48.8613 133.654 48.6427 133.537 48.472C133.42 48.2907 133.27 48.1467 133.089 48.04C132.908 47.9333 132.705 47.8587 132.481 47.816C132.268 47.7627 132.049 47.736 131.825 47.736C131.622 47.736 131.414 47.752 131.201 47.784C130.998 47.816 130.812 47.8747 130.641 47.96C130.47 48.0347 130.332 48.1413 130.225 48.28C130.118 48.408 130.065 48.5787 130.065 48.792C130.065 49.0267 130.145 49.224 130.305 49.384C130.476 49.5333 130.689 49.6613 130.945 49.768C131.201 49.864 131.489 49.9493 131.809 50.024C132.129 50.088 132.449 50.1573 132.769 50.232C133.11 50.3067 133.441 50.3973 133.761 50.504C134.092 50.6107 134.38 50.7547 134.625 50.936C134.881 51.1067 135.084 51.3253 135.233 51.592C135.393 51.8587 135.473 52.1893 135.473 52.584C135.473 53.0853 135.366 53.5013 135.153 53.832C134.95 54.1627 134.678 54.4293 134.337 54.632C134.006 54.8347 133.628 54.9733 133.201 55.048C132.785 55.1333 132.369 55.176 131.953 55.176C131.494 55.176 131.057 55.128 130.641 55.032C130.225 54.936 129.857 54.7813 129.537 54.568C129.217 54.344 128.961 54.056 128.769 53.704C128.577 53.3413 128.47 52.904 128.449 52.392H129.809ZM137.969 50.872C137.969 51.3733 138.033 51.8213 138.161 52.216C138.3 52.6 138.486 52.9253 138.721 53.192C138.956 53.448 139.228 53.6453 139.537 53.784C139.857 53.9227 140.193 53.992 140.545 53.992C140.897 53.992 141.228 53.9227 141.537 53.784C141.857 53.6453 142.134 53.448 142.369 53.192C142.604 52.9253 142.785 52.6 142.913 52.216C143.052 51.8213 143.121 51.3733 143.121 50.872C143.121 50.3707 143.052 49.928 142.913 49.544C142.785 49.1493 142.604 48.8187 142.369 48.552C142.134 48.2853 141.857 48.0827 141.537 47.944C141.228 47.8053 140.897 47.736 140.545 47.736C140.193 47.736 139.857 47.8053 139.537 47.944C139.228 48.0827 138.956 48.2853 138.721 48.552C138.486 48.8187 138.3 49.1493 138.161 49.544C138.033 49.928 137.969 50.3707 137.969 50.872ZM136.529 50.872C136.529 50.264 136.614 49.6987 136.785 49.176C136.956 48.6427 137.212 48.184 137.553 47.8C137.894 47.4053 138.316 47.096 138.817 46.872C139.318 46.648 139.894 46.536 140.545 46.536C141.206 46.536 141.782 46.648 142.273 46.872C142.774 47.096 143.196 47.4053 143.537 47.8C143.878 48.184 144.134 48.6427 144.305 49.176C144.476 49.6987 144.561 50.264 144.561 50.872C144.561 51.48 144.476 52.0453 144.305 52.568C144.134 53.0907 143.878 53.5493 143.537 53.944C143.196 54.328 142.774 54.632 142.273 54.856C141.782 55.0693 141.206 55.176 140.545 55.176C139.894 55.176 139.318 55.0693 138.817 54.856C138.316 54.632 137.894 54.328 137.553 53.944C137.212 53.5493 136.956 53.0907 136.785 52.568C136.614 52.0453 136.529 51.48 136.529 50.872ZM146.469 53.224H148.245V55H146.469V53.224ZM152.842 50.648L149.962 46.728H151.706L153.69 49.624L155.754 46.728H157.386L154.538 50.536L157.738 55H155.994L153.69 51.576L151.386 55H149.738L152.842 50.648ZM162.147 56.104C161.987 56.5093 161.827 56.8507 161.667 57.128C161.518 57.4053 161.347 57.6293 161.155 57.8C160.974 57.9813 160.766 58.1093 160.531 58.184C160.307 58.2693 160.046 58.312 159.747 58.312C159.587 58.312 159.427 58.3013 159.267 58.28C159.107 58.2587 158.952 58.2213 158.803 58.168V56.92C158.92 56.9733 159.054 57.016 159.203 57.048C159.363 57.0907 159.496 57.112 159.603 57.112C159.88 57.112 160.11 57.0427 160.291 56.904C160.483 56.776 160.627 56.5893 160.723 56.344L161.283 54.952L158.003 46.728H159.539L161.955 53.496H161.987L164.307 46.728H165.747L162.147 56.104ZM166.227 53.96L171.219 47.928H166.547V46.728H172.979V47.656L167.923 53.8H173.203V55H166.227V53.96Z" fill="black"/>
<path d="M57.9751 89.3816C59.8444 86.0333 64.0657 84.818 67.3798 86.6701C70.6973 88.5223 71.8715 92.7504 70.0023 96.0987L64.4218 106.085C63.9185 105.918 63.381 105.829 62.823 105.829C59.9985 105.829 57.7013 108.126 57.7013 110.954C57.7013 112.518 58.4065 113.922 59.5192 114.863L59.324 115.213H44L57.9751 89.3816Z" fill="#9AE3E3"/>
<path d="M66.496 108.78L63.0244 115.206C62.9594 115.213 62.8909 115.213 62.8224 115.213C62.0247 115.213 61.2784 114.994 60.6382 114.61C60.5149 114.535 60.3951 114.456 60.2787 114.371C60.1623 114.282 60.0528 114.193 59.9432 114.093C59.0907 113.313 58.5566 112.19 58.5566 110.947C58.5566 108.592 60.4704 106.678 62.8224 106.678C63.2299 106.678 63.6236 106.736 63.9967 106.842C64.1371 106.883 64.2741 106.928 64.4076 106.982C64.5411 107.037 64.6712 107.095 64.7979 107.164C65.5031 107.534 66.0954 108.095 66.496 108.78Z" fill="#069696"/>
<path d="M97.7362 110.944C97.7362 113.299 95.8224 115.213 93.467 115.213C91.1115 115.213 89.2012 113.299 89.2012 110.944C89.2012 108.588 91.115 106.678 93.467 106.678C95.819 106.678 97.7362 108.592 97.7362 110.944Z" fill="#069696"/>
<path d="M90.0003 96.0987L79.3221 115.213H63.998L64.0973 115.024H64.1008L66.9321 109.786L67.2094 109.273L67.4696 108.79L77.9766 89.3816C79.8459 86.0333 84.0638 84.818 87.3812 86.6701C90.6953 88.5223 91.8696 92.7504 90.0003 96.0987Z" fill="#9AE3E3"/>
<path d="M136.439 89.1181C133.102 89.1181 131.033 90.5881 129.09 92.5201C129.09 92.5201 128.921 92.7301 128.541 92.9401C127.527 90.3361 125.289 89.1181 122.037 89.1181C118.743 89.1181 116.673 90.5881 114.73 92.5201C114.73 92.5201 112.365 94.9981 109.873 92.1001H108.775V111.294H114.73V93.2761C116.378 91.5961 117.856 90.9661 119.418 90.9661C122.164 90.9661 122.924 92.9821 123.135 94.6201V111.294H129.175V96.804C129.175 96.3 129.175 95.7961 129.09 95.3341V93.2761C130.779 91.5961 132.215 90.9661 133.82 90.9661C137.579 90.9661 137.621 94.7461 137.621 96.258V111.294H143.576V96.804C143.576 91.5121 141 89.1181 136.439 89.1181Z" fill="#001515"/>
<path d="M170.039 96.93C167.97 90.2941 162.015 87.6901 155.722 89.6221C149.302 91.6381 145.839 97.476 147.908 104.07C149.978 110.706 155.891 113.31 162.226 111.378C168.603 109.362 172.109 103.524 170.039 96.93ZM162.226 110.748C158.974 111.798 155.806 108.186 153.864 102.012C151.921 95.838 152.259 91.3021 155.637 90.2521C158.932 89.2441 162.141 92.8561 164.084 99.072C165.985 105.162 165.647 109.698 162.226 110.748Z" fill="#001515"/>
<path d="M184.276 97.896L182.629 97.266C180.179 96.342 177.645 95.4181 177.645 92.9821C177.645 91.1761 179.124 89.7481 181.869 89.7481C185.036 89.7481 186.81 94.4101 188.415 95.1241L189.682 90.7141C188.626 90.1681 185.712 89.1601 182.502 89.1601C176.927 89.1601 173.971 92.2681 173.971 95.922C173.971 100.164 178.11 101.802 180.517 102.726L182.207 103.356C184.783 104.322 187.148 105.288 187.148 107.724C187.148 109.824 185.459 111.252 182.418 111.252C178.997 111.252 177.688 106.38 174.9 105.96L173.675 110.202C174.9 110.916 178.617 111.84 181.827 111.84C187.824 111.84 190.823 108.606 190.823 104.868C190.823 100.374 186.599 98.82 184.276 97.896Z" fill="#001515"/>
<path d="M216.439 96.93C214.37 90.2941 208.415 87.6901 202.122 89.6221C195.702 91.6381 192.239 97.476 194.309 104.07C196.378 110.706 202.291 113.31 208.626 111.378C215.003 109.362 218.509 103.524 216.439 96.93ZM208.626 110.748C205.374 111.798 202.206 108.186 200.264 102.012C198.321 95.838 198.659 91.3021 202.037 90.2521C205.332 89.2441 208.541 92.8561 210.484 99.072C212.385 105.162 212.047 109.698 208.626 110.748Z" fill="#001515"/>
<path d="M252.491 99.6116C256.675 99.8647 259.734 101.637 259.734 105.212C259.734 109.009 256.425 111.318 250.617 111.318H242V89.2023H250.711C255.707 89.2023 258.548 90.9741 258.548 94.2329C258.548 97.2703 255.769 99.0738 252.491 99.58V99.6116ZM246.746 89.7085V99.6749H249.743C252.241 99.6749 253.584 97.4918 253.584 94.7075C253.584 91.9866 252.335 89.7085 249.369 89.7085H246.746ZM249.119 110.844C252.928 110.844 254.551 108.914 254.551 105.686C254.551 102.396 252.928 100.181 250.18 100.181H246.746V110.622C247.214 110.78 248.494 110.844 249.119 110.844Z" fill="#787878"/>
<path d="M265.791 89.2972C266.571 90.0882 267.071 91.1639 267.102 92.3346V111.318H262.668V88C263.886 88 264.979 88.5062 265.791 89.2972Z" fill="#787878"/>
<path d="M286.826 100.466C288.356 105.433 285.765 109.831 281.05 111.35C276.367 112.805 271.996 110.844 270.466 105.845C268.936 100.877 271.496 96.4793 276.242 94.9607C280.894 93.5052 285.297 95.4669 286.826 100.466ZM281.05 110.875C283.579 110.084 283.829 106.667 282.424 102.079C280.988 97.3969 278.615 94.6759 276.18 95.4352C273.682 96.2262 273.432 99.6433 274.868 104.294C276.304 108.945 278.646 111.666 281.05 110.875Z" fill="#787878"/>
<path d="M305.625 96.6692C304.97 96.3844 304.252 96.1629 303.627 96.1629C303.096 96.1629 302.628 96.2579 302.285 96.4477C303.346 97.4285 304.002 98.7574 304.002 100.339C304.002 102.174 303.096 103.661 301.691 104.642C302.628 105.37 303.096 106.414 302.409 107.427C300.973 109.641 296.446 108.439 294.292 111.666C293.043 113.596 293.449 115.684 295.447 117.045C296.602 117.804 297.788 117.994 298.819 117.962C298.819 117.962 298.819 117.962 298.85 117.962C298.85 117.962 298.881 117.962 298.912 117.962C298.975 117.962 299.037 117.962 299.1 117.931C299.193 117.931 299.287 117.931 299.381 117.931C301.161 117.678 303.69 116.507 301.691 111.318H305.095C305.063 112.9 304.47 117.962 298.663 118.595C298.6 118.595 298.569 118.627 298.507 118.627C298.475 118.627 298.444 118.627 298.413 118.627C298.35 118.627 298.288 118.658 298.226 118.658C298.194 118.658 298.163 118.658 298.101 118.658C298.101 118.658 298.101 118.658 298.069 118.658C298.007 118.658 297.976 118.658 297.913 118.658C296.383 118.722 294.479 118.437 292.512 117.108C289.358 114.957 288.422 111.888 290.108 109.325C292.98 104.959 300.349 108.819 301.785 106.636C302.128 106.098 302.004 105.433 301.317 104.895C300.099 105.655 298.538 106.066 296.821 106.066C295.634 106.066 294.51 105.876 293.573 105.528L293.074 105.307C291.076 104.389 289.796 102.649 289.796 100.403C289.796 96.9856 292.918 94.6759 297.008 94.6759C298.944 94.6759 300.63 95.1821 301.847 96.0997C302.534 94.929 303.596 93.5685 306 93.5685L305.625 96.6692ZM296.945 105.591C299.037 105.591 299.974 103.598 299.974 100.434C299.974 97.207 298.881 95.1188 296.883 95.1188C294.729 95.1188 293.854 97.1754 293.854 100.339C293.854 103.535 294.916 105.591 296.945 105.591Z" fill="#787878"/>
<path d="M1514.22 95.076H1519.67C1520.93 95.076 1521.87 95.348 1522.5 95.892C1523.13 96.436 1523.45 97.1933 1523.45 98.164C1523.45 98.708 1523.37 99.1613 1523.21 99.524C1523.05 99.876 1522.86 100.164 1522.65 100.388C1522.43 100.601 1522.22 100.756 1522.01 100.852C1521.81 100.948 1521.66 101.012 1521.56 101.044V101.076C1521.73 101.097 1521.91 101.151 1522.1 101.236C1522.31 101.321 1522.49 101.46 1522.66 101.652C1522.83 101.833 1522.97 102.073 1523.08 102.372C1523.2 102.671 1523.26 103.044 1523.26 103.492C1523.26 104.164 1523.3 104.777 1523.4 105.332C1523.51 105.876 1523.67 106.265 1523.88 106.5H1521.74C1521.59 106.255 1521.5 105.983 1521.46 105.684C1521.44 105.385 1521.43 105.097 1521.43 104.82C1521.43 104.297 1521.4 103.849 1521.34 103.476C1521.27 103.092 1521.15 102.777 1520.98 102.532C1520.81 102.276 1520.58 102.089 1520.28 101.972C1519.99 101.855 1519.62 101.796 1519.16 101.796H1516.22V106.5H1514.22V95.076ZM1516.22 100.276H1519.5C1520.14 100.276 1520.62 100.127 1520.95 99.828C1521.28 99.5187 1521.45 99.06 1521.45 98.452C1521.45 98.0893 1521.39 97.796 1521.29 97.572C1521.18 97.3373 1521.03 97.156 1520.84 97.028C1520.66 96.9 1520.45 96.8147 1520.2 96.772C1519.97 96.7293 1519.72 96.708 1519.46 96.708H1516.22V100.276ZM1530.91 101.636C1530.88 101.348 1530.82 101.071 1530.71 100.804C1530.62 100.537 1530.48 100.308 1530.3 100.116C1530.13 99.9133 1529.91 99.7533 1529.66 99.636C1529.41 99.508 1529.13 99.444 1528.83 99.444C1528.51 99.444 1528.21 99.5027 1527.95 99.62C1527.69 99.7267 1527.47 99.8813 1527.27 100.084C1527.09 100.276 1526.94 100.505 1526.83 100.772C1526.72 101.039 1526.66 101.327 1526.65 101.636H1530.91ZM1526.65 102.836C1526.65 103.156 1526.69 103.465 1526.78 103.764C1526.87 104.063 1527.01 104.324 1527.19 104.548C1527.37 104.772 1527.6 104.953 1527.88 105.092C1528.16 105.22 1528.49 105.284 1528.87 105.284C1529.41 105.284 1529.83 105.172 1530.15 104.948C1530.48 104.713 1530.73 104.367 1530.89 103.908H1532.62C1532.52 104.356 1532.36 104.756 1532.12 105.108C1531.89 105.46 1531.6 105.759 1531.27 106.004C1530.94 106.239 1530.57 106.415 1530.15 106.532C1529.75 106.66 1529.32 106.724 1528.87 106.724C1528.22 106.724 1527.65 106.617 1527.15 106.404C1526.64 106.191 1526.22 105.892 1525.87 105.508C1525.52 105.124 1525.26 104.665 1525.08 104.132C1524.91 103.599 1524.83 103.012 1524.83 102.372C1524.83 101.785 1524.92 101.231 1525.1 100.708C1525.29 100.175 1525.56 99.7107 1525.9 99.316C1526.25 98.9107 1526.67 98.5907 1527.16 98.356C1527.65 98.1213 1528.21 98.004 1528.83 98.004C1529.48 98.004 1530.06 98.1427 1530.57 98.42C1531.09 98.6867 1531.52 99.044 1531.87 99.492C1532.21 99.94 1532.45 100.457 1532.6 101.044C1532.76 101.62 1532.8 102.217 1532.73 102.836H1526.65ZM1533.36 98.228H1535.3L1536.92 104.404H1536.95L1538.5 98.228H1540.34L1541.83 104.404H1541.86L1543.54 98.228H1545.4L1542.8 106.5H1540.93L1539.4 100.356H1539.36L1537.84 106.5H1535.92L1533.36 98.228ZM1553.5 104.66C1553.5 104.884 1553.52 105.044 1553.58 105.14C1553.64 105.236 1553.76 105.284 1553.93 105.284C1553.98 105.284 1554.05 105.284 1554.12 105.284C1554.2 105.284 1554.28 105.273 1554.38 105.252V106.516C1554.31 106.537 1554.23 106.559 1554.12 106.58C1554.03 106.612 1553.92 106.639 1553.82 106.66C1553.71 106.681 1553.6 106.697 1553.5 106.708C1553.39 106.719 1553.3 106.724 1553.23 106.724C1552.85 106.724 1552.54 106.649 1552.3 106.5C1552.05 106.351 1551.89 106.089 1551.82 105.716C1551.45 106.068 1551.01 106.324 1550.47 106.484C1549.95 106.644 1549.44 106.724 1548.95 106.724C1548.58 106.724 1548.22 106.671 1547.88 106.564C1547.54 106.468 1547.24 106.324 1546.97 106.132C1546.71 105.929 1546.51 105.679 1546.35 105.38C1546.2 105.071 1546.12 104.713 1546.12 104.308C1546.12 103.796 1546.21 103.38 1546.39 103.06C1546.59 102.74 1546.83 102.489 1547.13 102.308C1547.44 102.127 1547.78 101.999 1548.15 101.924C1548.54 101.839 1548.92 101.775 1549.31 101.732C1549.64 101.668 1549.95 101.625 1550.25 101.604C1550.55 101.572 1550.81 101.524 1551.03 101.46C1551.27 101.396 1551.45 101.3 1551.58 101.172C1551.72 101.033 1551.79 100.831 1551.79 100.564C1551.79 100.329 1551.73 100.137 1551.61 99.988C1551.5 99.8387 1551.36 99.7267 1551.19 99.652C1551.03 99.5667 1550.85 99.5133 1550.65 99.492C1550.45 99.46 1550.25 99.444 1550.07 99.444C1549.56 99.444 1549.14 99.5507 1548.81 99.764C1548.48 99.9773 1548.29 100.308 1548.25 100.756H1546.43C1546.46 100.223 1546.59 99.78 1546.81 99.428C1547.03 99.076 1547.32 98.7933 1547.66 98.58C1548.01 98.3667 1548.4 98.2173 1548.84 98.132C1549.28 98.0467 1549.73 98.004 1550.19 98.004C1550.59 98.004 1550.99 98.0467 1551.39 98.132C1551.78 98.2173 1552.13 98.356 1552.44 98.548C1552.76 98.74 1553.02 98.9907 1553.21 99.3C1553.4 99.5987 1553.5 99.9667 1553.5 100.404V104.66ZM1551.67 102.356C1551.4 102.537 1551.05 102.649 1550.65 102.692C1550.24 102.724 1549.84 102.777 1549.43 102.852C1549.24 102.884 1549.05 102.932 1548.87 102.996C1548.69 103.049 1548.53 103.129 1548.39 103.236C1548.25 103.332 1548.14 103.465 1548.06 103.636C1547.98 103.796 1547.95 103.993 1547.95 104.228C1547.95 104.431 1548 104.601 1548.12 104.74C1548.24 104.879 1548.38 104.991 1548.54 105.076C1548.71 105.151 1548.89 105.204 1549.08 105.236C1549.28 105.268 1549.47 105.284 1549.63 105.284C1549.83 105.284 1550.05 105.257 1550.28 105.204C1550.52 105.151 1550.73 105.06 1550.94 104.932C1551.15 104.804 1551.33 104.644 1551.47 104.452C1551.6 104.249 1551.67 104.004 1551.67 103.716V102.356ZM1555.46 98.228H1557.17V99.828H1557.2C1557.26 99.604 1557.36 99.3853 1557.51 99.172C1557.67 98.9587 1557.85 98.7667 1558.07 98.596C1558.29 98.4147 1558.54 98.2707 1558.8 98.164C1559.07 98.0573 1559.34 98.004 1559.62 98.004C1559.83 98.004 1559.98 98.0093 1560.05 98.02C1560.14 98.0307 1560.22 98.0413 1560.31 98.052V99.812C1560.18 99.7907 1560.05 99.7747 1559.91 99.764C1559.78 99.7427 1559.65 99.732 1559.52 99.732C1559.21 99.732 1558.92 99.796 1558.64 99.924C1558.38 100.041 1558.14 100.223 1557.94 100.468C1557.74 100.703 1557.58 100.996 1557.46 101.348C1557.34 101.7 1557.28 102.105 1557.28 102.564V106.5H1555.46V98.228ZM1568.6 106.5H1566.87V105.38H1566.84C1566.59 105.86 1566.23 106.207 1565.76 106.42C1565.29 106.623 1564.8 106.724 1564.28 106.724C1563.63 106.724 1563.05 106.612 1562.56 106.388C1562.08 106.153 1561.68 105.839 1561.36 105.444C1561.04 105.049 1560.8 104.585 1560.64 104.052C1560.48 103.508 1560.4 102.927 1560.4 102.308C1560.4 101.561 1560.51 100.916 1560.71 100.372C1560.91 99.828 1561.18 99.38 1561.51 99.028C1561.85 98.676 1562.23 98.42 1562.66 98.26C1563.1 98.0893 1563.54 98.004 1563.99 98.004C1564.24 98.004 1564.51 98.0307 1564.77 98.084C1565.04 98.1267 1565.29 98.2013 1565.54 98.308C1565.79 98.4147 1566.01 98.5533 1566.21 98.724C1566.43 98.884 1566.6 99.076 1566.74 99.3H1566.77V95.076H1568.6V106.5ZM1562.23 102.452C1562.23 102.804 1562.27 103.151 1562.36 103.492C1562.45 103.833 1562.59 104.137 1562.77 104.404C1562.96 104.671 1563.2 104.884 1563.49 105.044C1563.78 105.204 1564.12 105.284 1564.52 105.284C1564.92 105.284 1565.27 105.199 1565.56 105.028C1565.85 104.857 1566.09 104.633 1566.28 104.356C1566.47 104.079 1566.61 103.769 1566.69 103.428C1566.79 103.076 1566.84 102.719 1566.84 102.356C1566.84 101.439 1566.63 100.724 1566.21 100.212C1565.81 99.7 1565.25 99.444 1564.55 99.444C1564.12 99.444 1563.76 99.5347 1563.46 99.716C1563.17 99.8867 1562.93 100.116 1562.74 100.404C1562.56 100.681 1562.43 101.001 1562.34 101.364C1562.27 101.716 1562.23 102.079 1562.23 102.452ZM1571.96 103.844C1572.01 104.377 1572.22 104.751 1572.57 104.964C1572.92 105.177 1573.34 105.284 1573.83 105.284C1574 105.284 1574.2 105.273 1574.41 105.252C1574.63 105.22 1574.84 105.167 1575.03 105.092C1575.23 105.017 1575.38 104.911 1575.5 104.772C1575.63 104.623 1575.68 104.431 1575.67 104.196C1575.66 103.961 1575.58 103.769 1575.42 103.62C1575.26 103.471 1575.05 103.353 1574.79 103.268C1574.55 103.172 1574.27 103.092 1573.95 103.028C1573.63 102.964 1573.3 102.895 1572.97 102.82C1572.63 102.745 1572.3 102.655 1571.98 102.548C1571.67 102.441 1571.39 102.297 1571.13 102.116C1570.88 101.935 1570.69 101.705 1570.54 101.428C1570.39 101.14 1570.31 100.788 1570.31 100.372C1570.31 99.924 1570.42 99.5507 1570.63 99.252C1570.86 98.9427 1571.13 98.6973 1571.47 98.516C1571.81 98.324 1572.18 98.1907 1572.59 98.116C1573 98.0413 1573.4 98.004 1573.77 98.004C1574.2 98.004 1574.6 98.052 1574.99 98.148C1575.38 98.2333 1575.73 98.3773 1576.04 98.58C1576.36 98.7827 1576.62 99.0493 1576.83 99.38C1577.04 99.7 1577.17 100.089 1577.23 100.548H1575.32C1575.24 100.111 1575.03 99.8173 1574.71 99.668C1574.4 99.5187 1574.05 99.444 1573.64 99.444C1573.51 99.444 1573.36 99.4547 1573.18 99.476C1573.01 99.4973 1572.84 99.54 1572.68 99.604C1572.53 99.6573 1572.4 99.7427 1572.3 99.86C1572.19 99.9667 1572.14 100.111 1572.14 100.292C1572.14 100.516 1572.21 100.697 1572.36 100.836C1572.52 100.975 1572.72 101.092 1572.97 101.188C1573.23 101.273 1573.51 101.348 1573.83 101.412C1574.15 101.476 1574.48 101.545 1574.83 101.62C1575.16 101.695 1575.48 101.785 1575.8 101.892C1576.12 101.999 1576.4 102.143 1576.65 102.324C1576.91 102.505 1577.11 102.735 1577.26 103.012C1577.42 103.289 1577.5 103.631 1577.5 104.036C1577.5 104.527 1577.39 104.943 1577.16 105.284C1576.94 105.625 1576.64 105.903 1576.28 106.116C1575.93 106.329 1575.53 106.484 1575.1 106.58C1574.66 106.676 1574.23 106.724 1573.8 106.724C1573.28 106.724 1572.79 106.665 1572.35 106.548C1571.91 106.431 1571.52 106.255 1571.19 106.02C1570.87 105.775 1570.62 105.476 1570.43 105.124C1570.24 104.761 1570.15 104.335 1570.14 103.844H1571.96Z" fill="#373737"/>
<path d="M1614.27 95.076H1616.4L1620.8 106.5H1618.66L1617.58 103.476H1613.02L1611.95 106.5H1609.89L1614.27 95.076ZM1613.57 101.956H1617.06L1615.34 97.044H1615.3L1613.57 101.956ZM1621.68 95.076H1623.5V96.804H1621.68V95.076ZM1621.68 98.228H1623.5V106.5H1621.68V98.228ZM1625.49 98.228H1627.2V99.828H1627.24C1627.29 99.604 1627.39 99.3853 1627.54 99.172C1627.7 98.9587 1627.89 98.7667 1628.1 98.596C1628.32 98.4147 1628.57 98.2707 1628.84 98.164C1629.1 98.0573 1629.37 98.004 1629.65 98.004C1629.86 98.004 1630.01 98.0093 1630.08 98.02C1630.17 98.0307 1630.25 98.0413 1630.34 98.052V99.812C1630.21 99.7907 1630.08 99.7747 1629.94 99.764C1629.81 99.7427 1629.68 99.732 1629.56 99.732C1629.25 99.732 1628.95 99.796 1628.68 99.924C1628.41 100.041 1628.17 100.223 1627.97 100.468C1627.77 100.703 1627.61 100.996 1627.49 101.348C1627.37 101.7 1627.32 102.105 1627.32 102.564V106.5H1625.49V98.228ZM1638.63 106.5H1636.9V105.38H1636.87C1636.62 105.86 1636.26 106.207 1635.8 106.42C1635.33 106.623 1634.83 106.724 1634.31 106.724C1633.66 106.724 1633.09 106.612 1632.6 106.388C1632.12 106.153 1631.72 105.839 1631.4 105.444C1631.08 105.049 1630.84 104.585 1630.68 104.052C1630.52 103.508 1630.44 102.927 1630.44 102.308C1630.44 101.561 1630.54 100.916 1630.74 100.372C1630.94 99.828 1631.21 99.38 1631.54 99.028C1631.88 98.676 1632.26 98.42 1632.69 98.26C1633.13 98.0893 1633.57 98.004 1634.02 98.004C1634.28 98.004 1634.54 98.0307 1634.8 98.084C1635.07 98.1267 1635.33 98.2013 1635.57 98.308C1635.82 98.4147 1636.04 98.5533 1636.24 98.724C1636.46 98.884 1636.63 99.076 1636.77 99.3H1636.8V95.076H1638.63V106.5ZM1632.26 102.452C1632.26 102.804 1632.3 103.151 1632.39 103.492C1632.48 103.833 1632.62 104.137 1632.8 104.404C1633 104.671 1633.24 104.884 1633.52 105.044C1633.81 105.204 1634.15 105.284 1634.55 105.284C1634.95 105.284 1635.3 105.199 1635.59 105.028C1635.89 104.857 1636.13 104.633 1636.31 104.356C1636.5 104.079 1636.64 103.769 1636.72 103.428C1636.82 103.076 1636.87 102.719 1636.87 102.356C1636.87 101.439 1636.66 100.724 1636.24 100.212C1635.84 99.7 1635.28 99.444 1634.58 99.444C1634.15 99.444 1633.79 99.5347 1633.49 99.716C1633.2 99.8867 1632.96 100.116 1632.77 100.404C1632.59 100.681 1632.46 101.001 1632.37 101.364C1632.3 101.716 1632.26 102.079 1632.26 102.452ZM1640.62 98.228H1642.33V99.828H1642.36C1642.41 99.604 1642.51 99.3853 1642.66 99.172C1642.82 98.9587 1643.01 98.7667 1643.22 98.596C1643.45 98.4147 1643.69 98.2707 1643.96 98.164C1644.23 98.0573 1644.5 98.004 1644.78 98.004C1644.99 98.004 1645.13 98.0093 1645.21 98.02C1645.29 98.0307 1645.38 98.0413 1645.46 98.052V99.812C1645.34 99.7907 1645.2 99.7747 1645.06 99.764C1644.94 99.7427 1644.81 99.732 1644.68 99.732C1644.37 99.732 1644.08 99.796 1643.8 99.924C1643.53 100.041 1643.3 100.223 1643.1 100.468C1642.89 100.703 1642.73 100.996 1642.62 101.348C1642.5 101.7 1642.44 102.105 1642.44 102.564V106.5H1640.62V98.228ZM1649.75 106.724C1649.09 106.724 1648.5 106.617 1647.98 106.404C1647.46 106.18 1647.03 105.876 1646.66 105.492C1646.31 105.108 1646.04 104.649 1645.85 104.116C1645.67 103.583 1645.58 102.996 1645.58 102.356C1645.58 101.727 1645.67 101.145 1645.85 100.612C1646.04 100.079 1646.31 99.62 1646.66 99.236C1647.03 98.852 1647.46 98.5533 1647.98 98.34C1648.5 98.116 1649.09 98.004 1649.75 98.004C1650.41 98.004 1651 98.116 1651.51 98.34C1652.03 98.5533 1652.47 98.852 1652.82 99.236C1653.19 99.62 1653.46 100.079 1653.64 100.612C1653.83 101.145 1653.93 101.727 1653.93 102.356C1653.93 102.996 1653.83 103.583 1653.64 104.116C1653.46 104.649 1653.19 105.108 1652.82 105.492C1652.47 105.876 1652.03 106.18 1651.51 106.404C1651 106.617 1650.41 106.724 1649.75 106.724ZM1649.75 105.284C1650.16 105.284 1650.51 105.199 1650.81 105.028C1651.11 104.857 1651.35 104.633 1651.54 104.356C1651.74 104.079 1651.87 103.769 1651.96 103.428C1652.06 103.076 1652.1 102.719 1652.1 102.356C1652.1 102.004 1652.06 101.652 1651.96 101.3C1651.87 100.948 1651.74 100.639 1651.54 100.372C1651.35 100.095 1651.11 99.8707 1650.81 99.7C1650.51 99.5293 1650.16 99.444 1649.75 99.444C1649.35 99.444 1648.99 99.5293 1648.7 99.7C1648.4 99.8707 1648.15 100.095 1647.96 100.372C1647.77 100.639 1647.62 100.948 1647.53 101.3C1647.44 101.652 1647.4 102.004 1647.4 102.356C1647.4 102.719 1647.44 103.076 1647.53 103.428C1647.62 103.769 1647.77 104.079 1647.96 104.356C1648.15 104.633 1648.4 104.857 1648.7 105.028C1648.99 105.199 1649.35 105.284 1649.75 105.284ZM1655.49 98.228H1657.22V99.348H1657.25C1657.51 98.868 1657.87 98.5267 1658.32 98.324C1658.78 98.1107 1659.28 98.004 1659.81 98.004C1660.46 98.004 1661.03 98.1213 1661.51 98.356C1662 98.58 1662.4 98.8947 1662.72 99.3C1663.04 99.6947 1663.28 100.159 1663.44 100.692C1663.6 101.225 1663.68 101.796 1663.68 102.404C1663.68 102.959 1663.61 103.497 1663.46 104.02C1663.32 104.543 1663.1 105.007 1662.8 105.412C1662.52 105.807 1662.15 106.127 1661.7 106.372C1661.25 106.607 1660.72 106.724 1660.12 106.724C1659.85 106.724 1659.58 106.697 1659.32 106.644C1659.05 106.601 1658.79 106.527 1658.55 106.42C1658.3 106.313 1658.07 106.18 1657.86 106.02C1657.66 105.849 1657.49 105.652 1657.35 105.428H1657.32V109.556H1655.49V98.228ZM1661.86 102.372C1661.86 101.999 1661.81 101.636 1661.72 101.284C1661.62 100.932 1661.48 100.623 1661.28 100.356C1661.09 100.079 1660.85 99.86 1660.56 99.7C1660.28 99.5293 1659.95 99.444 1659.57 99.444C1658.8 99.444 1658.22 99.7107 1657.83 100.244C1657.44 100.777 1657.25 101.487 1657.25 102.372C1657.25 102.788 1657.3 103.177 1657.4 103.54C1657.5 103.892 1657.66 104.196 1657.86 104.452C1658.06 104.708 1658.3 104.911 1658.58 105.06C1658.87 105.209 1659.2 105.284 1659.57 105.284C1659.99 105.284 1660.34 105.199 1660.63 105.028C1660.92 104.857 1661.15 104.639 1661.33 104.372C1661.52 104.095 1661.66 103.785 1661.73 103.444C1661.82 103.092 1661.86 102.735 1661.86 102.372Z" fill="#373737"/>
<rect x="1687.5" y="75" width="158" height="51" rx="13.5" fill="#275EDF"/>
<rect x="1687.5" y="75" width="158" height="51" rx="13.5" stroke="white"/>
<path d="M1728.82 97.4C1728.71 96.3733 1728.34 95.6333 1727.7 95.18C1727.07 94.7133 1726.27 94.48 1725.28 94.48C1724.88 94.48 1724.49 94.52 1724.1 94.6C1723.71 94.68 1723.37 94.8133 1723.06 95C1722.77 95.1867 1722.53 95.44 1722.34 95.76C1722.17 96.0667 1722.08 96.4533 1722.08 96.92C1722.08 97.36 1722.21 97.72 1722.46 98C1722.73 98.2667 1723.07 98.4867 1723.5 98.66C1723.94 98.8333 1724.43 98.98 1724.98 99.1C1725.53 99.2067 1726.08 99.3267 1726.64 99.46C1727.21 99.5933 1727.77 99.7533 1728.32 99.94C1728.87 100.113 1729.35 100.353 1729.78 100.66C1730.22 100.967 1730.57 101.353 1730.82 101.82C1731.09 102.287 1731.22 102.873 1731.22 103.58C1731.22 104.34 1731.05 104.993 1730.7 105.54C1730.37 106.073 1729.93 106.513 1729.4 106.86C1728.87 107.193 1728.27 107.433 1727.6 107.58C1726.95 107.74 1726.29 107.82 1725.64 107.82C1724.84 107.82 1724.08 107.72 1723.36 107.52C1722.65 107.32 1722.03 107.02 1721.48 106.62C1720.95 106.207 1720.52 105.687 1720.2 105.06C1719.89 104.42 1719.74 103.667 1719.74 102.8H1721.54C1721.54 103.4 1721.65 103.92 1721.88 104.36C1722.12 104.787 1722.43 105.14 1722.8 105.42C1723.19 105.7 1723.63 105.907 1724.14 106.04C1724.65 106.173 1725.17 106.24 1725.7 106.24C1726.13 106.24 1726.55 106.2 1726.98 106.12C1727.42 106.04 1727.81 105.907 1728.16 105.72C1728.51 105.52 1728.79 105.253 1729 104.92C1729.21 104.587 1729.32 104.16 1729.32 103.64C1729.32 103.147 1729.19 102.747 1728.92 102.44C1728.67 102.133 1728.32 101.887 1727.88 101.7C1727.45 101.5 1726.97 101.34 1726.42 101.22C1725.87 101.1 1725.31 100.98 1724.74 100.86C1724.18 100.727 1723.63 100.58 1723.08 100.42C1722.53 100.247 1722.04 100.027 1721.6 99.76C1721.17 99.48 1720.83 99.1267 1720.56 98.7C1720.31 98.26 1720.18 97.7133 1720.18 97.06C1720.18 96.34 1720.33 95.72 1720.62 95.2C1720.91 94.6667 1721.3 94.2333 1721.78 93.9C1722.27 93.5533 1722.83 93.3 1723.44 93.14C1724.07 92.9667 1724.71 92.88 1725.36 92.88C1726.09 92.88 1726.77 92.9667 1727.4 93.14C1728.03 93.3133 1728.57 93.5867 1729.04 93.96C1729.52 94.3333 1729.89 94.8067 1730.16 95.38C1730.44 95.94 1730.59 96.6133 1730.62 97.4H1728.82ZM1733.25 93.22H1734.95V98.68H1734.99C1735.12 98.36 1735.31 98.0933 1735.55 97.88C1735.79 97.6533 1736.06 97.4733 1736.35 97.34C1736.66 97.1933 1736.97 97.0867 1737.29 97.02C1737.62 96.9533 1737.94 96.92 1738.25 96.92C1738.93 96.92 1739.5 97.0133 1739.95 97.2C1740.4 97.3867 1740.77 97.6467 1741.05 97.98C1741.33 98.3133 1741.52 98.7133 1741.63 99.18C1741.75 99.6333 1741.81 100.14 1741.81 100.7V107.5H1740.11V100.5C1740.11 99.86 1739.92 99.3533 1739.55 98.98C1739.18 98.6067 1738.66 98.42 1738.01 98.42C1737.49 98.42 1737.04 98.5 1736.65 98.66C1736.28 98.82 1735.96 99.0467 1735.71 99.34C1735.46 99.6333 1735.26 99.98 1735.13 100.38C1735.01 100.767 1734.95 101.193 1734.95 101.66V107.5H1733.25V93.22ZM1745.6 102.34C1745.6 102.967 1745.68 103.527 1745.84 104.02C1746.02 104.5 1746.25 104.907 1746.54 105.24C1746.84 105.56 1747.18 105.807 1747.56 105.98C1747.96 106.153 1748.38 106.24 1748.82 106.24C1749.26 106.24 1749.68 106.153 1750.06 105.98C1750.46 105.807 1750.81 105.56 1751.1 105.24C1751.4 104.907 1751.62 104.5 1751.78 104.02C1751.96 103.527 1752.04 102.967 1752.04 102.34C1752.04 101.713 1751.96 101.16 1751.78 100.68C1751.62 100.187 1751.4 99.7733 1751.1 99.44C1750.81 99.1067 1750.46 98.8533 1750.06 98.68C1749.68 98.5067 1749.26 98.42 1748.82 98.42C1748.38 98.42 1747.96 98.5067 1747.56 98.68C1747.18 98.8533 1746.84 99.1067 1746.54 99.44C1746.25 99.7733 1746.02 100.187 1745.84 100.68C1745.68 101.16 1745.6 101.713 1745.6 102.34ZM1743.8 102.34C1743.8 101.58 1743.91 100.873 1744.12 100.22C1744.34 99.5533 1744.66 98.98 1745.08 98.5C1745.51 98.0067 1746.04 97.62 1746.66 97.34C1747.29 97.06 1748.01 96.92 1748.82 96.92C1749.65 96.92 1750.37 97.06 1750.98 97.34C1751.61 97.62 1752.14 98.0067 1752.56 98.5C1752.99 98.98 1753.31 99.5533 1753.52 100.22C1753.74 100.873 1753.84 101.58 1753.84 102.34C1753.84 103.1 1753.74 103.807 1753.52 104.46C1753.31 105.113 1752.99 105.687 1752.56 106.18C1752.14 106.66 1751.61 107.04 1750.98 107.32C1750.37 107.587 1749.65 107.72 1748.82 107.72C1748.01 107.72 1747.29 107.587 1746.66 107.32C1746.04 107.04 1745.51 106.66 1745.08 106.18C1744.66 105.687 1744.34 105.113 1744.12 104.46C1743.91 103.807 1743.8 103.1 1743.8 102.34ZM1755.91 97.16H1757.61V98.56H1757.65C1757.93 97.9867 1758.37 97.5733 1758.97 97.32C1759.57 97.0533 1760.23 96.92 1760.95 96.92C1761.75 96.92 1762.44 97.0667 1763.03 97.36C1763.63 97.6533 1764.12 98.0533 1764.51 98.56C1764.91 99.0533 1765.21 99.6267 1765.41 100.28C1765.61 100.933 1765.71 101.627 1765.71 102.36C1765.71 103.093 1765.61 103.787 1765.41 104.44C1765.22 105.093 1764.93 105.667 1764.53 106.16C1764.14 106.64 1763.65 107.02 1763.05 107.3C1762.46 107.58 1761.77 107.72 1760.99 107.72C1760.73 107.72 1760.45 107.693 1760.13 107.64C1759.82 107.587 1759.51 107.5 1759.21 107.38C1758.9 107.26 1758.61 107.1 1758.33 106.9C1758.06 106.687 1757.83 106.427 1757.65 106.12H1757.61V111.44H1755.91V97.16ZM1763.91 102.24C1763.91 101.76 1763.84 101.293 1763.71 100.84C1763.59 100.373 1763.39 99.96 1763.13 99.6C1762.87 99.24 1762.54 98.9533 1762.13 98.74C1761.73 98.5267 1761.25 98.42 1760.71 98.42C1760.13 98.42 1759.65 98.5333 1759.25 98.76C1758.85 98.9867 1758.52 99.2867 1758.27 99.66C1758.01 100.02 1757.83 100.433 1757.71 100.9C1757.6 101.367 1757.55 101.84 1757.55 102.32C1757.55 102.827 1757.61 103.32 1757.73 103.8C1757.85 104.267 1758.03 104.68 1758.29 105.04C1758.55 105.4 1758.89 105.693 1759.31 105.92C1759.72 106.133 1760.22 106.24 1760.81 106.24C1761.39 106.24 1761.88 106.127 1762.27 105.9C1762.67 105.673 1762.99 105.373 1763.23 105C1763.47 104.627 1763.64 104.2 1763.75 103.72C1763.85 103.24 1763.91 102.747 1763.91 102.24ZM1773.53 93.22H1775.55L1783.07 104.8H1783.11V93.22H1784.91V107.5H1782.83L1775.37 96.04H1775.33V107.5H1773.53V93.22ZM1788.94 102.34C1788.94 102.967 1789.02 103.527 1789.18 104.02C1789.36 104.5 1789.59 104.907 1789.88 105.24C1790.18 105.56 1790.52 105.807 1790.9 105.98C1791.3 106.153 1791.72 106.24 1792.16 106.24C1792.6 106.24 1793.02 106.153 1793.4 105.98C1793.8 105.807 1794.15 105.56 1794.44 105.24C1794.74 104.907 1794.96 104.5 1795.12 104.02C1795.3 103.527 1795.38 102.967 1795.38 102.34C1795.38 101.713 1795.3 101.16 1795.12 100.68C1794.96 100.187 1794.74 99.7733 1794.44 99.44C1794.15 99.1067 1793.8 98.8533 1793.4 98.68C1793.02 98.5067 1792.6 98.42 1792.16 98.42C1791.72 98.42 1791.3 98.5067 1790.9 98.68C1790.52 98.8533 1790.18 99.1067 1789.88 99.44C1789.59 99.7733 1789.36 100.187 1789.18 100.68C1789.02 101.16 1788.94 101.713 1788.94 102.34ZM1787.14 102.34C1787.14 101.58 1787.25 100.873 1787.46 100.22C1787.68 99.5533 1788 98.98 1788.42 98.5C1788.85 98.0067 1789.38 97.62 1790 97.34C1790.63 97.06 1791.35 96.92 1792.16 96.92C1792.99 96.92 1793.71 97.06 1794.32 97.34C1794.95 97.62 1795.48 98.0067 1795.9 98.5C1796.33 98.98 1796.65 99.5533 1796.86 100.22C1797.08 100.873 1797.18 101.58 1797.18 102.34C1797.18 103.1 1797.08 103.807 1796.86 104.46C1796.65 105.113 1796.33 105.687 1795.9 106.18C1795.48 106.66 1794.95 107.04 1794.32 107.32C1793.71 107.587 1792.99 107.72 1792.16 107.72C1791.35 107.72 1790.63 107.587 1790 107.32C1789.38 107.04 1788.85 106.66 1788.42 106.18C1788 105.687 1787.68 105.113 1787.46 104.46C1787.25 103.807 1787.14 103.1 1787.14 102.34ZM1809.43 107.5H1807.63L1805.53 99.28H1805.49L1803.41 107.5H1801.57L1798.25 97.16H1800.13L1802.47 105.62H1802.51L1804.59 97.16H1806.45L1808.61 105.62H1808.65L1810.97 97.16H1812.73L1809.43 107.5Z" fill="white"/>
<g clip-path="url(#clip0_112_2652)">
<path d="M1888 85.5C1879.72 85.5 1873 92.22 1873 100.5C1873 108.78 1879.72 115.5 1888 115.5C1896.28 115.5 1903 108.78 1903 100.5C1903 92.22 1896.28 85.5 1888 85.5ZM1888 90C1890.49 90 1892.5 92.01 1892.5 94.5C1892.5 96.99 1890.49 99 1888 99C1885.51 99 1883.5 96.99 1883.5 94.5C1883.5 92.01 1885.51 90 1888 90ZM1888 111.3C1884.25 111.3 1880.93 109.38 1879 106.47C1879.05 103.485 1885 101.85 1888 101.85C1890.99 101.85 1896.95 103.485 1897 106.47C1895.07 109.38 1891.75 111.3 1888 111.3Z" fill="#474747"/>
</g>
</g>
<defs>
<filter id="filter0_d_112_2652" x="0" y="0" width="1944" height="173" filterUnits="userSpaceOnUse" color-interpolation-filters="sRGB">
<feFlood flood-opacity="0" result="BackgroundImageFix"/>
<feColorMatrix in="SourceAlpha" type="matrix" values="0 0 0 0 0 0 0 0 0 0 0 0 0 0 0 0 0 0 127 0" result="hardAlpha"/>
<feOffset dx="2" dy="4"/>
<feGaussianBlur stdDeviation="6"/>
<feComposite in2="hardAlpha" operator="out"/>
<feColorMatrix type="matrix" values="0 0 0 0 0 0 0 0 0 0 0 0 0 0 0 0 0 0 0.08 0"/>
<feBlend mode="normal" in2="BackgroundImageFix" result="effect1_dropShadow_112_2652"/>
<feBlend mode="normal" in="SourceGraphic" in2="effect1_dropShadow_112_2652" result="shape"/>
</filter>
<clipPath id="clip0_112_2652">
<rect width="36" height="36" fill="white" transform="translate(1870 82.5)"/>
</clipPath>
</defs>
</svg>
